<?xml version="1.0" encoding="UTF-8" standalone="no"?>
<!-- Creator: CorelDRAW SE -->

<svg
   xml:space="preserve"
   width="1920mm"
   height="1080mm"
   version="1.1"
   style="clip-rule:evenodd;fill-rule:evenodd;image-rendering:optimizeQuality;shape-rendering:geometricPrecision;text-rendering:geometricPrecision"
   viewBox="0 0 197264.87 110962.15"
   id="svg281"
   sodipodi:docname="background.svg"
   inkscape:version="1.1.1 (3bf5ae0d25, 2021-09-20)"
   xmlns:inkscape="http://www.inkscape.org/namespaces/inkscape"
   xmlns:sodipodi="http://sodipodi.sourceforge.net/DTD/sodipodi-0.dtd"
   xmlns="http://www.w3.org/2000/svg"
   xmlns:svg="http://www.w3.org/2000/svg"><sodipodi:namedview
   id="namedview283"
   pagecolor="#ffffff"
   bordercolor="#666666"
   borderopacity="1.0"
   inkscape:pageshadow="2"
   inkscape:pageopacity="0.0"
   inkscape:pagecheckerboard="0"
   inkscape:document-units="mm"
   showgrid="false"
   inkscape:snap-page="true"
   showguides="false"
   inkscape:zoom="0.14806296"
   inkscape:cx="3697.7513"
   inkscape:cy="2215.2739"
   inkscape:window-width="1920"
   inkscape:window-height="1016"
   inkscape:window-x="0"
   inkscape:window-y="0"
   inkscape:window-maximized="1"
   inkscape:current-layer="Vrstva_x0020_1" />
 <defs
   id="defs4">
  <style
   type="text/css"
   id="style2">
   <![CDATA[
    .fil0 {fill:#171717}
   ]]>
  </style>
 </defs>
 <g
   id="Vrstva_x0020_1"
   inkscape:label="Vrstva 1"
   inkscape:groupmode="layer">
  <metadata
   id="CorelCorpID_0Corel-Layer" />
  <rect
   style="fill:#ffffff;stroke-width:27.184"
   id="rect1122"
   width="197266.05"
   height="110962.15"
   x="-0.59398133"
   y="0.0018445658" />
  <g
   id="_1647768776"
   transform="translate(-4653.7801,20415.202)">
   <path
   class="fil0"
   d="m 50560,2018 c 324,-109 445,-212 610,-243 675,-127 1837,-101 2427,79 250,1447 17,2213 12,3693 -1,314 -40,624 -73,913 -42,362 49,661 17,972 -70,676 45,3021 44,3878 0,368 -25,663 -32,990 -9,354 2,687 -250,808 -991,480 -1315,565 -2513,377 -112,-18 -293,-48 -403,-102 -93,-46 -210,-160 -316,-228 217,-501 253,-2113 247,-2700 -5,-513 72,-944 58,-1441 l 57,-2891 c -59,-521 68,-1906 -63,-2740 -56,-360 104,-1052 178,-1365 z m 3645,10982 c 141,-951 117,-4249 91,-5517 -11,-513 125,-2135 121,-2703 -1,-230 33,-541 51,-811 75,-1118 -335,-1550 212,-1970 322,-248 710,-323 1152,-276 679,71 1070,-413 1361,363 258,690 228,2697 155,3567 -109,1322 47,6577 -177,7205 -121,340 -260,283 -643,319 -270,25 -518,128 -778,164 -807,111 -1028,-110 -1545,-341 z M 46611,2154 c 0,-15 38,-135 46,-157 70,-177 -22,-52 106,-132 68,-43 271,-112 360,-131 935,-204 771,-115 1569,10 412,65 517,-49 692,316 407,848 253,2265 295,2458 93,427 19,479 11,893 l 22,892 c -25,310 -67,494 -67,865 0,1050 48,5114 -138,5598 -310,807 -1468,541 -1702,559 -347,28 -922,-230 -1065,-386 -433,-474 -43,-2789 -90,-3564 -39,-632 59,-1213 21,-1838 l -5,-2746 c 17,-277 -21,-628 4,-885 l 64,-1371 c -15,-188 -125,-283 -123,-381 z m 7520,-328 c -843,-748 -2799,-573 -3440,-297 -488,211 -482,553 -523,914 -192,-159 -233,-907 -1675,-1094 -687,-89 -1191,-118 -1803,141 -175,74 -258,168 -311,398 -171,727 -109,1815 -119,2670 -15,1195 -168,2837 -192,4016 -4,156 25,421 16,622 -41,930 -237,2526 36,3335 258,765 997,886 1384,1031 110,41 18,10 124,56 84,36 41,2 128,55 165,101 107,158 521,151 337,-6 981,59 1299,-137 378,-233 176,-41 430,-249 5,-4 18,-14 28,-20 485,271 552,729 2162,646 360,-19 243,57 567,-72 l 759,-326 c 409,-108 511,171 628,-401 277,67 391,298 636,406 416,184 675,391 1310,229 543,-139 1107,-145 1214,-184 154,-56 194,-235 322,-347 108,-95 171,-70 221,-484 55,-463 9,-884 85,-1316 91,-524 -75,-1804 73,-2721 40,-243 -15,-346 -50,-559 -54,-317 50,-355 62,-622 49,-1122 145,-4263 -176,-5165 -341,-956 -520,-1160 -1522,-1250 -368,-33 -1605,88 -1988,406 -60,49 -45,45 -92,86 z"
   id="path12" />
   <path
   class="fil0"
   d="m 55406,10414 c -316,102 -400,238 -460,577 -113,646 -99,1196 456,1615 259,196 805,409 1036,-68 213,-440 324,-737 176,-1284 -67,-250 -204,-537 -379,-694 -148,-133 -602,-219 -829,-146 z"
   id="path14" />
   <path
   class="fil0"
   d="m 51429,10450 c -322,106 -360,229 -427,602 -225,1263 566,1829 1283,1657 247,-59 413,-275 492,-548 80,-278 -123,-2114 -1348,-1711 z"
   id="path16" />
   <path
   class="fil0"
   d="m 47579,10515 c -447,327 -732,1623 61,2019 290,144 1117,180 1166,-594 106,-1682 -1090,-1525 -1227,-1425 z"
   id="path18" />
   <path
   class="fil0"
   d="m 56158,2635 -161,272 c -105,176 -79,168 -245,259 -174,-131 -279,-488 -450,-583 -32,10 -637,453 -437,743 167,-33 242,-311 443,-435 l 303,494 c 230,9 241,0 368,-133 94,-99 156,-217 269,-284 273,135 363,486 686,27 l 177,-104 c 5,-227 -4,-292 -188,-329 -100,169 -72,460 -288,389 -113,-37 -250,-266 -477,-316 z"
   id="path20" />
   <path
   class="fil0"
   d="m 50920,3218 113,-6 c 77,-41 213,-324 248,-380 262,186 275,624 678,274 137,-120 94,-117 313,-153 64,200 212,300 373,413 234,-72 276,-147 404,-299 104,-124 289,-214 163,-423 -301,52 -127,363 -586,436 -160,-162 -251,-420 -476,-486 -185,138 -135,338 -405,405 -240,-109 -149,-278 -450,-465 -78,64 -377,498 -384,622 z"
   id="path22" />
   <path
   class="fil0"
   d="m 47109,3281 c 203,-85 47,-126 358,-360 215,225 156,268 276,539 311,-27 323,-141 437,-305 109,-156 1,-57 143,-149 165,60 113,44 214,217 79,135 75,128 191,206 273,-114 114,-185 493,-273 12,-140 -6,-248 -55,-338 -271,122 -96,243 -461,321 -202,-305 -356,-612 -637,-147 -112,186 -56,156 -266,194 -61,-205 -125,-471 -335,-561 -154,76 -169,170 -280,301 -122,144 -237,198 -78,355 z"
   id="path24" />
   <path
   class="fil0"
   d="m 51485,3913 c 47,88 225,372 283,435 219,0 395,-215 500,-351 290,35 695,332 799,-87 -131,-92 -120,-27 -288,-22 -414,15 -361,-425 -876,190 -348,-162 -308,-809 -788,-154 -44,60 -337,485 -25,392 180,-53 70,-254 395,-403 z"
   id="path26" />
   <path
   class="fil0"
   d="m 56068,4290 c -138,-82 -39,9 -127,-153 -49,-89 -37,-89 -94,-173 -79,-116 -129,-192 -275,-256 -144,87 -155,226 -288,380 -74,85 -302,248 -186,355 25,25 6,213 256,-147 91,-132 148,-220 278,-283 197,184 128,384 309,499 338,151 464,-422 667,-586 137,72 60,-3 142,131 l 83,173 c 314,-207 -85,-531 -361,-568 -95,208 -213,536 -404,628 z"
   id="path28" />
   <path
   class="fil0"
   d="m 47135,4487 c 248,43 196,-245 485,-386 117,152 129,391 356,442 327,73 397,-166 501,-316 244,39 411,311 642,156 -22,-199 -76,-122 -274,-207 -227,-97 -115,-147 -342,-202 -155,23 -376,783 -708,69 -61,-132 -89,-171 -238,-213 -126,96 -424,442 -422,657 z"
   id="path30" />
   <path
   class="fil0"
   d="m 51022,5328 c 167,70 368,-234 633,-333 106,65 24,12 104,89 77,74 114,144 259,151 293,13 109,3 181,-56 65,-161 -70,-108 -210,-185 -116,-64 -146,-155 -289,-247 -107,27 -652,367 -690,468 -66,176 -2,84 12,113 z"
   id="path32" />
  </g>
  <g
   id="_1647770216"
   transform="translate(22040.318,801.8063)">
   <path
   class="fil0"
   d="m 16275,48287 c 179,33 311,101 495,175 l 442,260 c -119,294 -659,769 -972,908 -190,84 -204,97 -240,-135 -75,-485 196,-863 275,-1208 z m 2413,-1872 c -93,-173 -68,-223 -192,-289 -167,137 -25,167 27,371 37,141 36,95 -8,206 -47,118 -112,150 -168,184 -30,-76 -64,-172 -99,-263 -66,-171 -33,-168 -157,-225 -204,316 402,546 -45,1069 l -42,-55 c -173,-305 -68,-504 -268,-609 -290,330 547,827 -57,1202 -70,-174 -140,-592 -263,-712 -214,67 -84,114 2,392 81,258 80,313 182,547 l -217,278 c -4,-3 -19,-29 -25,-19 l -943,-432 c 222,-841 1841,-3427 2387,-4342 128,-214 185,-435 370,-625 178,40 1016,437 1155,541 -100,407 -526,1132 -731,1457 -168,267 -733,1168 -908,1324 z m 606,-3530 c 98,-243 262,-443 351,-677 504,29 455,266 1017,603 -56,192 -134,399 -200,586 -394,-52 -879,-357 -1168,-512 z m -2238,118 c -1,-283 211,-551 343,-736 175,-246 272,-395 627,-495 -38,482 -575,1197 -970,1231 z m 4862,-2580 c -7,10 -16,23 -21,30 -4,7 -15,21 -21,29 l -174,329 c -46,182 33,145 156,196 -192,105 -108,-131 -263,92 -41,59 -48,205 -2,298 -119,7 -13,-85 -112,46 l -238,529 c -132,281 -118,435 -307,625 -3,4 -12,14 -16,18 l -27,29 c -155,116 -766,-386 -1017,-579 -7,-6 -24,-9 -29,-26 -5,-17 -19,-17 -28,-26 83,-174 151,-204 220,-386 65,-168 94,-262 170,-419 85,-176 137,-217 181,-396 94,-386 283,-578 545,-1039 213,-374 251,-584 443,-701 109,57 98,60 216,113 l 343,210 c 68,41 91,52 160,96 -25,499 -469,560 -67,1045 3,4 13,13 15,16 52,67 58,-35 25,96 -8,-7 -17,-18 -21,-22 z m -6168,7274 c -158,-11 -376,-68 -483,-157 -19,-18 -95,18 -74,-229 102,-1218 197,-912 331,-1646 l 339,-1232 c 181,-428 504,-1262 832,-1572 41,39 300,584 663,535 561,-75 873,-919 1068,-1365 179,-407 -262,-454 -650,-415 -8,-8 -18,-36 -23,-27 -4,7 -34,-35 -53,-43 -81,-37 -20,-14 -106,-28 -389,-60 -936,602 -1127,849 l -680,1074 c -76,149 -143,236 -209,372 l -335,839 c -85,296 -220,569 -286,877 -75,352 -424,1930 -77,2124 l 326,120 c 152,49 309,108 440,161 -27,330 -136,379 -164,741 -23,289 6,515 106,750 202,471 431,698 1062,636 176,-53 391,-438 591,-616 484,-431 1208,-1670 1528,-2204 88,-148 131,-208 221,-361 l 655,-929 c 48,-52 92,-89 140,-168 l 353,-548 c 183,-260 744,-1088 827,-1336 30,-90 32,-146 72,-245 l 262,-678 c 80,-165 109,-265 195,-441 66,-134 95,-286 163,-419 84,-164 139,-209 214,-410 l 349,-912 c 128,-362 131,-594 291,-929 l 591,-1303 c 349,-717 155,-494 342,-918 72,-164 102,-316 148,-494 -35,-47 -16,-35 -61,-81 -82,-84 -170,-106 -324,-113 -242,-11 -699,548 -940,766 -599,540 -415,557 -937,829 -261,135 -1389,2021 -1686,2401 -330,421 -1286,1996 -1600,2538 l -1086,1843 c -459,795 -616,1124 -974,1950 l -210,385 c -5,7 -16,20 -24,29 z"
   id="path35" />
   <path
   class="fil0"
   d="m 19028,45015 c 114,-203 35,-96 -44,-342 -57,-178 -40,-263 -172,-357 -38,40 -83,58 -78,168 0,12 101,479 294,531 z"
   id="path37" />
   <path
   class="fil0"
   d="m 19352,44931 c 25,-51 10,-667 -180,-806 -98,128 -27,244 72,612 1,2 28,101 30,105 63,138 6,41 78,89 z"
   id="path39" />
  </g>
  
  
  
  
  <g
   id="_605553904"
   transform="matrix(0.69276731,0.69276731,-0.69276731,0.69276731,29232.818,28823.909)">
   <path
   class="fil0"
   d="m 47269,48362 c 339,-37 483,-104 781,-212 267,-97 506,-123 761,-232 239,-102 385,-240 683,-302 292,-62 655,-52 951,-6 590,91 1224,149 1821,155 763,7 797,145 1183,309 256,108 190,2 195,363 -474,-133 -870,-304 -1197,-323 -231,-14 -259,-62 -420,-85 -731,-106 -2888,75 -3554,368 -191,84 -531,260 -684,313 -379,131 -233,38 -754,257 74,-189 97,-354 234,-605 z m -260,805 c 190,-142 464,-236 727,-297 652,-152 672,-400 1557,-514 322,-41 577,-81 925,-117 631,-65 1342,-126 1933,7 445,99 108,-100 851,186 139,53 277,69 424,117 222,73 211,104 224,382 -731,-241 -1544,-574 -2464,-558 -478,9 -464,65 -829,155 -240,60 -624,81 -883,105 -351,33 -511,118 -813,182 -635,136 -906,372 -1652,352 z m 6956,-1191 c 506,408 995,-672 2983,-749 1285,-49 958,49 1881,157 450,52 844,68 1239,287 224,124 193,87 222,351 -237,-82 -443,-219 -709,-308 -268,-90 -600,-87 -922,-112 -309,-23 -547,-92 -854,-125 -779,-86 -1129,-109 -1845,80 l -754,281 c -131,61 -161,120 -296,198 -303,178 -775,491 -1003,578 13,-328 70,-471 71,-553 1,-68 -77,54 -13,-85 z m -6985,133 c -157,-152 -54,150 -63,-70 -6,-146 -26,-20 37,-100 39,62 119,-79 26,170 z m 6852,883 c 52,-280 361,-357 593,-502 565,-354 826,-508 1484,-768 750,-296 1783,-82 2507,20 501,70 939,-21 1465,252 281,146 596,209 460,600 -10,4 -26,-3 -30,8 l -94,5 c -82,-11 -76,-27 -172,-59 l -6,-346 c -144,99 -71,106 -208,213 -250,-100 -323,-202 -681,-310 -249,-75 -553,-166 -806,-232 -790,-207 -1854,-144 -2540,289 l -663,375 c -427,288 -335,283 -992,502 -109,37 -161,68 -279,-15 z m 7005,-1419 c -39,-19 -21,-5 -62,-65 -175,-252 -153,-214 -153,-483 66,-20 14,4 102,-23 l 90,-36 c 3,-288 -66,-384 -90,-630 -183,-1895 -313,-2503 -692,-4343 -134,-652 -316,-1891 -472,-2412 -112,-374 -401,-1255 -579,-1582 -161,-299 -115,-281 -178,-589 -89,-437 -333,-620 -429,-1018 -95,-388 -414,-590 -798,-622 -525,-45 -695,-144 -1285,-41 -794,139 -990,177 -1631,574 -945,587 -1243,798 -1902,1697 -103,141 -190,270 -295,426 -60,91 -81,109 -145,212 -93,147 -77,127 -186,216 -224,-104 -504,-251 -732,-382 -1189,-685 -2378,-879 -3771,-599 -289,58 -1494,487 -1712,627 l -555,435 c -66,177 3,69 22,98 l -52,57 c -1,1 -135,-100 -182,40 l -98,250 c -412,867 -125,730 14,1913 150,1265 207,1646 222,3016 3,270 -6,541 -4,811 3,606 256,1504 426,2012 162,480 196,836 313,1310 78,319 226,1258 576,1092 329,-155 -160,25 92,-46 74,-21 187,-12 261,-16 167,-10 277,-73 450,-86 810,-61 1122,-143 1877,-372 335,-101 589,-110 958,-174 665,-116 1194,-333 1911,-142 361,96 1039,197 1320,350 155,85 214,171 349,239 206,103 649,-45 839,-113 138,-49 292,-84 411,-128 192,-71 198,-130 361,-228 1388,-833 1907,-951 3479,-578 1117,265 843,479 1154,529 78,12 369,-53 517,-67 153,-336 60,-456 -36,-971 88,-49 74,-53 181,-14 -65,-279 -47,-27 114,-144 z m -10670,-220 c 798,-147 1916,-374 2820,107 206,110 539,334 622,491 -225,-6 -137,-66 -341,-139 -644,-231 -1747,-219 -2194,-284 -299,-43 -764,-45 -907,-175 z m 4905,79 c 311,-180 706,-395 1124,-507 1051,-280 543,-133 1427,-162 658,-22 1747,244 2358,545 171,84 183,59 209,238 -600,-268 -1881,-434 -2528,-469 -1603,-88 -2405,412 -2406,412 -357,70 -59,57 -184,-57 z m -9332,-3206 c 106,169 398,2037 496,2425 45,176 103,376 190,529 131,230 103,294 184,538 52,157 149,396 163,566 13,160 -128,407 -225,523 -130,-144 -96,-366 -131,-551 -78,-412 -322,-1149 -358,-1653 -29,-405 -139,-735 -196,-1170 -47,-359 -141,-839 -123,-1207 z m -193,-4045 c 9,10 22,13 26,34 7,34 63,18 133,353 31,153 62,277 106,430 89,302 157,529 219,862 104,555 225,1261 276,1848 125,1444 146,1939 413,3328 30,155 95,301 -1,454 l -259,-806 c -148,-494 -116,-273 -205,-882 -46,-316 -127,-521 -186,-837 -63,-335 -84,-596 -149,-939 -125,-647 -63,-1325 -151,-1966 -74,-542 -284,-1403 -222,-1879 z m -247,544 c -58,-68 -24,-1 -87,-136 -235,-507 -223,-508 2,-656 z m 30,-955 c -88,-113 -87,-133 -43,-279 50,36 108,32 118,145 10,124 -72,131 -75,134 z m 8165,7612 c -424,-173 -667,-411 -1430,-526 -1215,-184 -2233,-33 -3334,495 l -986,500 c -31,19 -117,73 -150,84 -326,108 -110,138 -356,-1073 -85,-420 -47,-819 -75,-1246 -40,-616 -371,-2779 -501,-3451 -143,-744 -595,-2350 -1068,-2843 9,-10 28,-32 35,-21 l 339,-164 c 181,-89 193,-25 619,-241 86,-44 96,-42 192,-81 178,-71 226,-99 441,-142 324,-65 617,-159 876,-251 180,-65 759,-143 971,-140 670,10 1165,-58 1943,300 138,63 253,136 355,188 576,288 798,281 874,843 179,1306 347,2650 550,3954 l 494,2884 c 59,267 194,702 211,931 z m 6754,-317 c -283,-22 -745,-343 -1567,-521 -1366,-294 -2242,-242 -3443,201 -658,243 -963,714 -1261,861 l -927,-5400 c -64,-802 -251,-1938 -491,-2703 -21,-65 -32,-230 -34,-241 -20,-134 -38,-12 -89,-221 239,-194 311,7 734,-622 139,-207 582,-493 675,-634 236,-355 194,-108 710,-597 161,-154 222,-154 448,-241 376,-146 1537,-1032 2939,-708 129,30 240,53 294,397 38,245 -35,62 -26,227 l 696,2026 c 111,359 140,771 219,1136 l 451,2289 c 431,1555 340,2252 576,3533 60,324 129,855 96,1218 z"
   id="path112" />
   <path
   class="fil0"
   d="m 47178,40383 c 287,9 258,-114 459,-300 825,-757 2088,-924 3156,-609 621,182 617,420 746,478 459,201 63,-976 -2378,-767 -570,49 -1290,379 -1640,739 -131,134 -328,222 -343,459 z"
   id="path114" />
   <path
   class="fil0"
   d="m 54471,46201 c 352,-69 415,-590 1709,-999 540,-171 1091,-261 1710,-39 281,101 264,148 429,292 77,-18 145,-52 189,-149 -814,-847 -2396,-439 -3270,130 l -632,491 c -101,90 -128,123 -135,274 z"
   id="path116" />
   <path
   class="fil0"
   d="m 53635,39429 c 285,8 250,-243 785,-801 576,-602 1269,-915 2090,-1159 969,-288 1069,129 1270,-210 -262,-190 -1045,-44 -1337,60 -1101,395 -1791,650 -2510,1584 -130,168 -293,288 -298,526 z"
   id="path118" />
   <path
   class="fil0"
   d="m 49682,40673 c -392,129 -1343,144 -1921,803 -194,221 -26,242 160,115 652,-445 463,-444 1395,-644 796,-172 244,-152 1194,-62 250,23 354,34 563,108 129,45 410,193 468,178 234,-59 -82,-251 -167,-290 -325,-150 -1391,-307 -1692,-208 z"
   id="path120" />
   <path
   class="fil0"
   d="m 53983,40433 c 259,1 169,-51 592,-570 354,-434 588,-587 1088,-938 l 1088,-489 c 270,-94 736,-155 1041,-181 243,-20 209,25 242,-170 -432,-159 -2128,499 -2466,704 -416,252 -1532,1156 -1585,1644 z"
   id="path122" />
   <path
   class="fil0"
   d="m 58596,41864 c -59,-240 -247,-154 -492,-189 -247,-36 -359,-60 -647,-32 -891,85 -1826,555 -2449,1173 -75,75 -335,298 -362,404 -95,378 443,-267 638,-443 463,-418 1323,-879 1981,-941 368,-34 1205,76 1331,28 z"
   id="path124" />
   <path
   class="fil0"
   d="m 54294,41692 c 90,42 55,43 186,-31 76,-43 143,-101 203,-159 509,-498 446,-516 1269,-896 899,-416 1140,-365 2036,-480 191,-25 173,-18 221,-151 -162,-79 -1535,139 -1817,267 -878,398 -1019,320 -1795,1085 -88,87 -337,264 -303,365 z"
   id="path126" />
   <path
   class="fil0"
   d="m 48326,46273 c 200,104 251,-180 750,-382 655,-263 1501,-265 2239,-186 484,52 678,464 901,225 -133,-397 -1680,-492 -2103,-438 -494,63 -1556,207 -1787,781 z"
   id="path128" />
   <path
   class="fil0"
   d="m 49299,42275 c -35,376 674,-153 1732,337 192,89 462,162 651,88 -11,-299 43,-117 -476,-249 -551,-139 -1206,-389 -1907,-176 z"
   id="path130" />
   <path
   class="fil0"
   d="m 47716,44753 c 0,1 52,87 210,-6 224,-130 -39,-58 632,-370 166,-77 311,-134 507,-171 302,-58 387,44 411,-262 -546,-17 -993,269 -1257,372 -241,94 -515,365 -503,437 z"
   id="path132" />
   <path
   class="fil0"
   d="m 54968,44563 c 198,-89 185,-319 786,-556 163,-64 195,-34 210,-240 -185,-61 -237,29 -631,279 -152,96 -458,302 -365,517 z"
   id="path134" />
   <path
   class="fil0"
   d="m 57826,43601 c -86,84 -175,31 243,215 116,50 313,194 375,134 161,-154 -512,-451 -618,-349 z"
   id="path136" />
   <path
   class="fil0"
   d="m 48430,42825 55,21 c 29,-3 500,-170 452,-334 l -144,-10 c -132,42 -410,167 -363,323 z"
   id="path138" />
   <path
   class="fil0"
   d="m 50198,44082 c -38,73 -128,177 222,169 543,-13 214,-328 -222,-169 z"
   id="path140" />
   <path
   class="fil0"
   d="m 51394,44309 c 72,162 18,79 194,132 163,50 108,85 312,99 -30,-329 -441,-346 -506,-231 z"
   id="path142" />
   <path
   class="fil0"
   d="m 47667,43273 c 151,-50 167,-75 252,-160 43,-43 183,-149 120,-209 -98,-93 -351,182 -372,369 z"
   id="path144" />
   <path
   class="fil0"
   d="m 56704,43679 c 47,57 40,102 164,48 80,-35 102,-62 107,-168 -144,-4 -211,34 -271,120 z"
   id="path146" />
  </g>
  
  
  <g
   id="g1283"
   transform="matrix(1.2966437,0,0,1.2966437,15624.518,-81134.174)"><g
     id="_605553592"
     transform="matrix(0.38381382,0.22159501,-0.22159501,0.38381382,110969.26,57750.12)">
   <path
   class="fil0"
   d="m 54177,33142 c 11,-9 28,-34 34,-24 6,10 25,-18 34,-24 187,-113 542,-177 762,-169 -5,777 -793,1021 -830,217 z m -1297,-869 c 172,41 115,24 362,210 123,92 192,156 248,307 -442,28 -612,-61 -610,-517 z m 173,-166 523,-85 c 223,415 363,301 579,675 l -515,69 c -240,-409 -453,-357 -587,-659 z m 726,-66 c 293,12 668,-190 1099,437 62,90 -6,-31 66,113 l -668,91 c -130,-270 -276,-335 -379,-446 -126,-136 -56,-26 -118,-195 z m 1964,-390 c 150,-94 236,-199 275,45 112,701 -627,786 -959,874 -9,-8 -20,-36 -23,-28 -3,7 -17,-23 -21,-30 -39,-59 -21,-32 -54,-89 -51,-89 -39,-80 -104,-159 -113,-138 -183,-149 -250,-306 146,-64 376,-97 564,-86 151,206 170,240 267,522 122,-176 -89,-406 -135,-613 l 320,-72 c 36,156 44,303 155,383 z m -3594,-838 c 239,-113 248,-216 569,-326 l -218,589 c -6,12 -46,78 -54,87 -73,87 18,4 -89,69 -217,-89 -212,-145 -208,-419 z m 3451,403 c 10,-240 106,-404 208,-609 216,-435 100,-425 393,-443 -30,391 -249,639 -256,786 203,-75 288,-556 419,-741 707,284 -355,946 -764,1007 z m -2968,-226 c 360,-637 234,-650 672,-687 -107,395 -381,809 -482,1158 l -300,-165 z m 838,-740 c 238,11 338,-23 511,-79 -24,269 -236,842 -382,1105 -28,51 -44,79 -76,142 l -67,131 c -3,-8 -11,23 -19,36 l -509,-134 c 9,-118 426,-744 542,-1201 z m 1994,1064 c -871,409 -319,-300 -17,-1111 56,-151 13,-150 155,-171 476,-73 -21,766 -79,919 -91,240 -8,270 -59,363 z m -1283,233 c 255,-209 418,-1088 651,-1459 l 476,9 c -50,428 -425,920 -471,1394 -765,76 -274,146 -1270,119 210,-377 593,-1414 636,-1478 l 413,-25 c -33,200 -167,579 -245,767 -89,216 -278,522 -190,673 z m -353,-6164 c -297,95 -522,-91 -403,-396 l 269,-585 c 264,239 290,719 134,981 z m 129,-1291 c 388,-583 1341,-565 1526,-16 167,496 -258,1380 -374,1862 l -398,1894 c -72,882 -18,1212 180,1998 l -1374,157 c -136,-252 -304,-472 -426,-734 -116,-249 -170,-570 -280,-848 -72,-184 -76,-281 -96,-486 l -335,-1385 c -42,-169 -36,-339 -80,-503 -161,-606 -342,-2049 427,-2214 429,-91 633,105 806,320 -48,244 -366,656 -344,890 38,396 607,937 997,490 345,-396 -209,-1320 -229,-1425 z m -1210,6051 c -108,-357 -315,-544 -519,-837 -114,-164 -431,-417 -620,-729 -588,-968 -1244,-1237 -1112,-3271 67,-1027 205,-936 384,-1427 516,-1410 908,-1733 2222,-2291 1005,-427 2693,-202 3506,549 469,433 1049,1584 1012,2536 -64,1678 -1054,2419 -1712,3641 -141,263 -246,781 -197,1133 10,77 31,134 35,174 l -10,131 -635,69 c -84,-422 -160,-707 -147,-1183 6,-217 35,-340 20,-553 -21,-294 23,-293 124,-482 102,-192 72,-361 110,-558 33,-173 97,-315 142,-488 93,-354 164,-635 305,-963 538,-1249 460,-2117 -1044,-2107 -553,3 -524,213 -858,393 -30,5 -1207,-696 -1748,217 -246,416 -136,1729 25,2175 218,606 244,1353 476,1997 115,319 239,603 356,908 120,314 335,559 416,824 z m -250,105 c -50,84 -3,38 -90,114 -26,23 -72,50 -103,74 -696,541 -122,1314 487,1420 -89,516 -203,610 82,1088 215,359 576,263 1015,199 26,43 265,879 901,805 389,-46 706,-588 567,-1085 l 513,-99 c 180,-276 608,-371 417,-997 l -203,-348 370,-214 c 734,-542 162,-1391 -503,-1468 50,-175 145,-614 223,-748 26,-44 44,-42 91,-127 321,-585 407,-461 767,-997 l 443,-543 c 36,-50 59,-83 98,-128 6,-7 15,-17 22,-24 136,-152 212,-196 310,-409 279,-608 488,-1796 400,-2497 l -350,-1092 -588,-892 c -391,-363 96,-39 -525,-464 -112,-77 -33,-41 -118,-109 -78,-63 -78,-47 -176,-93 -125,-58 -191,-111 -320,-171 l -721,-261 c -733,-221 -1410,-259 -2184,-130 -159,27 -282,12 -452,50 -788,177 -1869,866 -2259,1691 -147,310 -36,-78 -175,219 -205,437 -452,1436 -517,1956 -139,1111 139,2298 722,3182 221,335 644,796 942,1038 546,442 596,724 914,1060 z"
   id="path101" />
   <path
   class="fil0"
   d="m 54359,22360 c 146,93 592,149 793,241 379,173 369,439 537,484 136,-174 120,-215 -35,-352 -106,-95 -231,-245 -329,-300 -80,-44 -853,-267 -937,-271 z"
   id="path103" />
   <path
   class="fil0"
   d="m 55534,22246 c 133,228 274,51 595,370 l 460,523 c 125,-52 73,-31 155,-128 -133,-342 -655,-810 -1100,-895 -66,60 -75,41 -110,130 z"
   id="path105" />
   <path
   class="fil0"
   d="m 56950,24720 c 158,-69 221,-170 180,-359 -188,51 -166,129 -180,359 z"
   id="path107" />
   <path
   class="fil0"
   d="m 56886,23807 3,-192 -184,-6 c -28,183 9,219 181,198 z"
   id="path109" />
  </g><g
     id="_605522464"
     transform="matrix(-1.4013806,0,0,1.4013806,163817.1,27816.174)">
   <path
   class="fil0"
   d="m 30353,46633 c 75,210 287,462 419,621 670,802 766,1098 1293,1949 507,819 733,986 1111,1544 65,96 162,204 243,298 27,30 107,125 129,145 150,137 22,13 132,74 l 124,114 c 53,57 80,72 138,127 -31,128 -62,196 -112,344 l -159,349 c -130,-130 -255,-458 -410,-634 -187,-211 -286,-399 -468,-617 -909,-1095 -982,-1548 -1732,-2589 -150,-208 -301,-417 -484,-595 -356,-345 -119,-249 -512,-563 z m 391,60 c 201,25 309,84 557,121 2096,312 1669,74 3360,53 1355,-17 2659,136 4026,-35 l 2048,-83 c 57,5 264,36 284,36 283,-1 122,-155 409,215 150,194 203,185 357,454 56,98 129,179 194,256 288,343 440,711 633,1034 l 1332,2007 c -412,31 -734,60 -854,-288 -361,198 -50,169 -914,132 -638,-27 -2315,134 -3080,180 -559,35 -1321,55 -1997,94 -336,19 -642,75 -997,80 l -2031,89 c -332,5 -203,-30 -584,-513 -896,-1134 -1033,-1581 -1743,-2625 -152,-222 -300,-406 -476,-602 -162,-180 -426,-389 -524,-605 z m 4593,-7795 c 1557,-77 2979,191 4549,121 386,-18 698,-41 1106,-6 309,26 310,-8 318,292 l -279,5004 c -44,699 -225,1297 -156,2074 -117,-16 -209,-20 -310,-49 -807,-236 -1277,-39 -2212,-35 -396,2 -910,65 -1350,87 -477,24 -965,18 -1442,2 -991,-32 -1796,-46 -2790,13 -428,26 -943,38 -1366,4 -219,-18 -462,-26 -639,-82 -178,-55 -193,-3 -198,-483 117,-99 153,-106 161,-311 27,-795 169,-681 218,-1271 29,-338 62,-567 120,-875 61,-320 38,-592 72,-919 112,-1048 150,-1722 -46,-2739 l -187,-821 c 335,82 681,138 1086,76 1442,-222 2275,-29 3345,-82 z m -5132,6805 c 0,170 -9,328 4,498 l -434,-31 c 7,-341 49,-666 30,-958 -24,-360 -16,-640 -12,-994 6,-496 47,-1385 121,-1858 48,-310 35,-640 72,-968 l 200,-1766 c 17,-211 19,-776 38,-874 l 160,4 73,229 c 9,71 10,155 12,237 l 14,1485 c -11,312 13,667 -27,973 -125,958 -118,1692 -260,2707 -191,1360 8,741 9,1316 z m 359,-7106 -266,-133 c -201,200 21,121 -372,209 63,479 -349,3107 -369,3923 -16,697 -117,1354 -98,2073 l -6,1435 c 34,205 100,164 210,298 l 583,28 c -127,145 -397,692 -386,896 220,173 106,-16 299,273 l 1519,2219 c 77,121 151,269 238,390 86,120 168,200 261,324 l 1023,1457 c 33,61 411,593 583,677 268,129 245,48 328,-165 271,78 -51,67 551,130 l 943,58 c 155,27 47,49 269,73 235,25 445,2 678,-4 237,-5 443,2 677,8 218,6 392,-45 629,-49 1012,-15 1601,-31 2627,71 403,40 2067,-44 2544,-122 294,-48 165,-264 1022,-363 l -96,-269 c -526,-92 -596,8 -1059,113 -189,43 -338,114 -489,127 -1081,89 -2069,133 -3154,53 -1722,-127 -3394,151 -5097,-6 -26,-395 46,-464 76,-776 267,-24 784,19 1150,11 435,-9 754,-43 1215,-37 l 2432,-120 c 817,-30 1507,-131 2297,-165 523,-23 23,-99 1170,-92 436,3 781,29 1216,49 l 45,-128 c 14,0 134,-6 137,-5 195,20 164,-3 184,679 10,354 -70,427 174,597 53,-90 38,-35 35,-280 -3,-145 -6,-151 -25,-287 -32,-218 -17,-456 -19,-679 112,45 209,85 324,147 58,-113 -30,-14 84,-125 -161,-198 -241,-388 -366,-624 l -398,-591 c -266,-445 -511,-741 -761,-1222 -124,-241 -239,-379 -386,-602 -64,-97 -126,-171 -215,-281 -185,-227 -377,-622 -648,-836 -246,-194 -367,-245 -514,-528 77,-228 118,-602 163,-865 101,-593 229,-1267 237,-1882 13,-1186 205,-1550 166,-2926 -9,-297 25,-798 -15,-1060 -23,-148 -53,-319 -19,-515 l 5,-171 c -13,-93 -3,-62 52,-145 -168,-96 -302,-286 -418,-346 -147,-76 -3253,-125 -3629,-124 -825,3 -2218,-161 -3019,-119 -1015,54 -1723,-119 -2997,78 -385,59 -670,150 -1013,160 -230,7 -157,27 -312,86 z"
   id="path164" />
   <path
   class="fil0"
   d="m 33749,49712 1002,-101 c 94,130 179,247 249,372 -183,129 -718,251 -945,298 z m 1333,-121 1251,-30 c 104,132 253,321 318,477 l -1326,-46 c -143,-234 -152,-122 -243,-401 z m 1548,-104 147,-61 c 194,-46 1043,-186 1171,-132 153,121 408,524 462,702 -155,-2 -434,-2 -583,13 -705,71 -786,249 -1197,-522 z m 1608,-90 c 100,-132 111,-154 519,-197 249,-27 379,-37 651,-36 165,332 463,676 478,859 -156,-17 -323,-57 -513,-63 -181,-6 -307,41 -525,20 -300,-29 -512,-352 -610,-583 z m 1403,-246 1070,-54 c 89,240 317,553 502,673 -69,84 4,75 -240,143 -204,56 -609,259 -891,11 -55,-49 -44,-30 -91,-95 -196,-270 -349,-677 -350,-678 z m 1270,-72 853,-54 469,745 -880,85 c -54,-116 -145,-225 -229,-349 -111,-165 -187,-178 -213,-427 z m -7666,-380 944,-160 c 107,333 412,621 470,952 l -1024,46 c -62,-167 -138,-281 -206,-395 -97,-161 -110,-255 -184,-443 z m 1220,-157 c 203,-158 1011,-192 1232,-198 l 88,160 c 209,532 277,544 358,720 71,154 31,23 1,83 -89,98 -934,110 -1168,99 z m 1557,-254 1296,-74 471,813 c -226,156 -1010,233 -1282,257 l -276,-424 c -97,-175 -167,-338 -209,-572 z m 2025,782 c -103,-167 -457,-706 -397,-891 l 1244,-6 c 151,170 346,610 393,806 -209,2 -414,42 -619,71 -221,30 -412,4 -621,20 z m 2017,-1028 c 147,147 402,652 467,886 l -990,49 c -74,-153 -140,-295 -214,-422 -126,-216 -108,-109 -195,-400 z m 246,-12 c 289,-15 602,58 835,-18 123,124 160,247 253,414 95,171 180,251 220,446 l -878,7 c -8,-10 -19,-23 -25,-30 -5,-7 -17,-21 -24,-30 z m -6259,-271 c 601,32 425,-8 762,-59 155,-23 184,25 343,23 124,-1 178,-28 317,-33 64,122 107,276 115,455 -499,26 -820,115 -1309,152 z m 3291,-118 c 87,-64 -5,-27 146,-69 9,-3 148,-21 150,-22 l 997,-54 c 62,125 119,254 159,444 l -1391,-13 z m -1612,66 c 1289,-53 1355,-259 1459,243 l -1312,109 c -98,-122 -112,-182 -147,-352 z m -2620,899 c -52,-147 -198,-337 -298,-467 l -254,-332 c -80,-125 -13,-9 -79,-152 427,41 861,115 1281,115 113,196 168,234 246,502 l -255,87 c -548,102 -460,87 -641,247 z m 7620,-1180 c 80,145 194,268 241,394 l -795,18 -127,-384 z m -893,38 114,360 -948,113 -150,-420 z m -7713,27 c -17,231 74,189 195,332 48,56 68,106 127,191 91,131 61,53 149,163 l 1380,2350 c 314,-29 345,-48 601,-104 140,-31 225,-1 337,-24 84,-18 137,-72 243,-110 112,44 165,90 316,138 l 72,-174 c 327,0 607,27 918,38 285,9 671,-12 931,22 416,56 443,-72 824,-55 551,25 1162,-46 1899,17 1014,87 853,-98 1190,-185 235,-61 1037,-57 1208,-172 9,-195 -269,-495 -362,-675 l -407,-719 c -190,-370 -831,-1075 -921,-1302 169,62 258,188 336,209 -10,-97 -220,-203 -314,-250 -270,-135 -1362,-25 -1655,4 -454,45 -803,6 -1245,6 -412,1 -1601,141 -2382,163 -261,8 -917,14 -1185,61 -1153,200 -1597,-24 -2041,64 z"
   id="path166" />
   <path
   class="fil0"
   d="m 32077,41641 c 226,-2281 -364,-1963 694,-1897 368,23 525,-58 854,-41 1171,59 2358,10 3465,-5 284,-3 594,28 862,40 636,28 1195,-91 1601,-56 304,26 526,52 831,66 -66,449 -71,951 -147,1390 -107,621 53,2288 12,2946 -16,267 -81,1152 -167,1324 -452,103 -1531,-24 -1989,-104 -625,-108 -2026,-1 -3104,-102 -663,-62 -2458,-96 -3097,-78 z m 8078,4117 c 6,-11 10,-41 13,-34 l 48,-136 c 3,-8 9,-25 12,-32 2,-7 6,-23 12,-32 67,152 -4,124 185,145 153,-432 186,-3011 128,-3700 l 34,-1942 c 62,-375 39,-21 143,-266 -315,-409 -605,-305 -1174,-374 -511,-63 -1015,9 -1518,13 -1018,9 -2043,-33 -3060,4 -899,32 -1324,-28 -2222,34 -1077,75 -930,-402 -963,503 -9,245 -5,552 -35,786 -59,474 -58,977 -119,1457 -38,298 -92,2904 -31,3021 101,197 242,204 526,232 240,25 444,93 682,105 952,50 2032,25 3054,118 583,53 392,49 823,-42 162,-35 351,-3 533,-1 954,10 1327,78 2200,145 256,20 434,-23 729,-4 z"
   id="path168" />
   <path
   class="fil0"
   d="m 33531,41427 c 69,158 71,198 292,159 157,-28 249,-73 358,-148 208,-142 357,-384 625,-439 -112,378 -839,1342 -965,1807 -43,158 81,554 235,642 376,216 1028,-267 1270,-482 307,-271 681,-624 1125,-779 -124,666 -665,742 -315,1436 220,17 204,-29 311,-164 203,-257 622,-572 956,-603 -51,377 -228,485 -48,859 182,376 449,198 753,98 l 166,241 c 173,272 594,465 761,345 -172,-268 -527,-200 -656,-546 -158,-425 -365,-338 -816,-301 32,-293 193,-453 160,-774 -310,-282 -356,-189 -804,-164 109,-283 230,-515 219,-826 l 546,-340 -44,-88 c -42,-120 47,-100 -127,-153 -436,-131 -155,44 -260,-224 -517,-20 -78,-121 -433,-82 -187,20 -979,566 -1096,669 l -261,184 c -331,215 -914,676 -1048,718 290,-739 1073,-1481 1096,-2090 l -186,-95 c -10,-5 -20,-13 -29,-18 -219,-112 -479,142 -815,415 -171,139 -300,235 -477,378 -414,333 -380,118 -493,365 z"
   id="path170" />
   <path
   class="fil0"
   d="m 32365,43414 c 166,-116 207,-1665 227,-1943 15,-213 71,-485 -47,-600 -205,78 -162,979 -174,1234 -10,211 -135,1001 -101,1169 40,202 -42,74 95,140 z"
   id="path172" />
   <path
   class="fil0"
   d="m 32590,44307 c 120,-33 122,60 159,-411 16,-199 38,-341 52,-533 44,-583 191,-854 59,-1041 -123,52 -103,-52 -168,414 -51,372 -261,1328 -102,1571 z"
   id="path174" />
   <path
   class="fil0"
   d="m 32948,43904 c -99,119 -112,102 -32,253 241,-47 104,-195 99,-262 0,0 114,-463 -99,-251 -116,115 -12,207 32,260 z"
   id="path176" />
   <path
   class="fil0"
   d="m 32248,43685 c 36,159 21,125 117,203 90,-116 124,-100 54,-264 -65,-21 84,-68 -80,-10 -51,18 -74,39 -91,71 z"
   id="path178" />
   <path
   class="fil0"
   d="m 32244,44385 c 138,-78 225,-186 31,-258 -94,119 -95,135 -31,258 z"
   id="path180" />
  </g><g
     id="_605524504"
     transform="translate(53647.1,34731.517)">
   <path
   class="fil0"
   d="m 41736,61246 c 480,77 280,-159 643,517 66,122 98,142 124,287 l -367,147 c -171,-174 -384,-728 -400,-951 z m -453,-16 268,-24 319,858 -288,-14 z m -768,-149 c 151,66 26,-72 260,350 76,136 128,325 157,505 -338,-36 -318,8 -365,-306 l -88,-403 c -8,-248 -13,-60 36,-146 z m 312,29 c 306,39 241,63 361,360 73,183 154,341 190,539 -378,-8 -271,-70 -366,-370 -63,-199 -170,-334 -185,-529 z m 2143,-62 c 334,-3 322,105 629,74 242,-25 371,17 653,1 l 49,115 c 54,169 18,244 58,383 -344,-78 -329,-159 -780,-177 -415,-17 -567,13 -609,-396 z m -2455,-631 -440,-80 305,-295 321,117 c -61,170 -80,154 -186,258 z m -876,-108 c 80,-221 169,-223 275,-432 336,49 243,65 290,102 -202,286 -334,351 -565,330 z m -243,-21 c -131,-7 -271,-24 -359,-84 80,-147 154,-187 280,-298 202,-179 107,-194 438,-105 -27,226 -229,374 -359,487 z m -5155,-607 c 13,6 32,1 39,18 l 298,136 c 1167,495 2380,518 3295,799 358,110 1914,315 2372,398 7,13 14,18 17,40 3,22 13,29 16,39 l 197,725 c -635,-29 -10,-173 -320,-309 l -128,210 c -64,-63 -22,3 -68,-89 0,-1 -25,-71 -30,-82 l -113,136 c -617,-27 -1262,-202 -1846,-307 -56,-229 -88,-548 -247,-650 -51,76 -23,192 -5,272 30,130 48,196 70,339 l -290,-22 c -156,-189 -137,-587 -270,-679 -192,114 -9,401 24,604 l -414,-81 c 6,-163 45,-450 -32,-551 -35,-29 58,-88 -75,-8 -137,81 -69,361 -59,506 -262,-62 -536,-160 -769,-220 -280,-72 -541,-58 -822,-127 -493,-120 -435,98 -593,-358 l -182,-494 c -59,-160 -23,-80 -65,-245 z m 4625,497 -396,-39 c 96,-251 285,-356 406,-533 l 383,83 c -70,236 -188,204 -393,489 z m 5498,805 c -105,-31 -225,-52 -370,-66 19,-376 339,-606 296,-1015 -188,102 -306,812 -443,1020 -190,-13 -243,-45 -451,-66 -289,-29 -279,-56 -476,-125 72,-411 533,-1254 582,-1492 191,30 203,70 381,108 168,36 258,21 422,78 233,81 528,147 783,173 -77,265 -530,985 -724,1385 z m -6088,-868 c -111,-17 -71,-3 -163,-32 -147,-47 -80,-36 -116,-59 39,-70 131,-204 195,-296 90,-126 153,-129 254,-240 160,73 124,20 223,130 z m -3078,-664 c 24,-185 30,-125 139,-281 l 119,-194 c 126,-193 364,-25 696,95 484,175 1621,360 2061,371 -71,270 -223,349 -341,559 l -2111,-392 c -169,-72 -69,-25 -138,-81 76,-137 190,-226 119,-351 -252,147 -165,513 -544,274 z m 7585,2338 c -153,-65 -263,-376 -418,-645 -172,-295 29,-576 138,-841 243,-590 360,-1416 473,-1680 88,30 163,31 267,306 94,253 -204,511 -436,1215 -118,355 -308,450 -87,781 245,368 259,524 63,864 z m -7807,-2380 -282,-58 c 6,-6 18,-33 21,-25 l 254,-392 c 49,-65 76,-102 138,-170 2,-2 92,-90 94,-92 79,-53 32,-34 152,-68 85,221 64,206 -224,626 z m 1057,-1758 685,171 c 255,48 445,50 707,109 235,53 437,87 663,145 801,203 1109,236 1906,575 254,108 356,98 653,144 111,18 221,57 327,89 165,51 207,32 402,54 4,343 -102,712 -156,1020 -239,-38 -483,-127 -707,-194 -241,-71 -381,-169 -614,-240 -1617,-495 -2919,-483 -4209,-929 96,-310 242,-634 343,-944 z m -1462,1682 c -353,-70 -425,-98 180,-838 159,-193 690,-627 720,-862 -182,38 -272,206 -384,340 -113,136 -204,235 -333,385 l -461,618 c -92,128 -97,152 -231,212 33,-227 377,-840 523,-998 323,-348 694,-619 547,-798 -146,64 -298,521 -603,691 43,-210 357,-800 420,-1050 105,-416 -22,-492 274,-423 88,21 169,39 255,65 l 2321,699 c 340,69 707,88 1058,160 360,73 607,93 966,204 l 1409,394 c 441,188 1035,264 1351,496 -74,344 -433,1294 -588,1745 l -169,507 c -47,95 -16,39 -50,84 -324,-168 -88,35 -189,-257 -198,-4 -288,-41 -438,-99 l -428,-179 c 173,-366 343,-154 620,-77 104,-126 217,-645 266,-895 68,-350 157,-291 -16,-593 -266,-465 -1214,-408 -1956,-702 -1130,-448 -2143,-592 -3334,-761 -251,-36 -294,-118 -514,-114 -36,63 -186,496 -212,581 -42,142 -129,528 -234,611 -220,174 138,-266 -420,318 -283,296 -238,364 -350,536 z m 64,1800 c 284,-150 125,-45 370,-25 l 1003,134 1354,435 c 306,74 693,109 1039,184 645,139 1212,381 1980,391 211,2 321,54 507,95 199,44 309,39 515,70 352,54 672,96 1003,191 162,-176 207,-168 246,-344 l 289,54 c 2,-246 9,-160 97,-310 60,-102 87,-220 113,-335 172,4 249,21 390,37 232,27 165,-17 352,-32 271,-21 416,145 629,181 175,-244 732,-1039 1025,-1565 -116,-330 -15,-329 -166,-733 -69,-184 42,-91 -119,-193 10,-45 -25,27 -243,28 -242,1 -839,-189 -1026,-229 -310,-67 -416,-8 -711,-567 -362,-688 -803,-522 -1389,-762 l -2637,-789 -2184,-376 c -565,-126 -1443,-436 -2096,-474 -191,186 -392,829 -553,1195 l -553,1202 c -95,233 -114,424 -36,681 l 243,658 c 243,572 195,910 558,1198 z"
   id="path183" />
   <path
   class="fil0"
   d="m 43261,60554 c 141,-47 109,-102 183,-255 132,-276 433,-577 358,-760 -182,11 -136,29 -216,217 -131,304 -411,622 -325,798 z"
   id="path185" />
   <path
   class="fil0"
   d="m 43577,60588 c 96,-37 459,-686 430,-904 -174,98 -202,220 -294,426 -55,123 -208,365 -136,478 z"
   id="path187" />
   <path
   class="fil0"
   d="m 37328,58696 c 108,-48 110,-44 142,-158 -142,-110 -138,-108 -274,2 88,161 -53,59 132,156 z"
   id="path189" />
   <path
   class="fil0"
   d="m 36246,58460 c -53,167 28,129 30,132 226,108 205,-96 96,-229 -75,26 -96,1 -126,97 z"
   id="path191" />
   <path
   class="fil0"
   d="m 36263,57971 c -19,260 34,213 64,250 117,-78 125,-143 103,-285 z"
   id="path193" />
   <path
   class="fil0"
   d="m 36775,58216 c 97,-25 95,6 144,-82 82,-149 -14,-139 -14,-140 -164,-76 -166,93 -130,222 z"
   id="path195" />
   <path
   class="fil0"
   d="m 37777,58836 c 182,-82 209,-258 -36,-231 -30,178 -36,123 36,231 z"
   id="path197" />
   <path
   class="fil0"
   d="m 36708,58520 c 199,23 241,-97 115,-204 -113,50 -114,-7 -115,204 z"
   id="path199" />
  </g></g>
  <g
   id="_605526232"
   transform="matrix(1.401467,-0.80913734,0.80913734,1.401467,-2228.5905,7717.3627)">
   <path
   class="fil0"
   d="m 1649,29860 c 27,-432 448,-804 662,-1053 8,-9 61,-69 77,-86 8,-9 26,-11 32,-33 6,-22 21,-23 33,-34 85,111 203,195 288,301 -58,124 -9,47 -115,160 -205,217 -723,658 -977,745 z m 7028,-1310 c 6,-9 17,-20 22,-25 228,-266 106,-310 355,-393 119,300 571,956 413,1335 l -158,-9 c -51,-23 -80,-58 -126,-107 -157,-168 -402,-582 -506,-801 z M 5258,22414 c 276,-11 544,50 856,53 741,6 1614,39 2080,673 409,557 692,1151 881,1824 103,368 101,1339 38,1767 -135,926 -70,701 -587,1214 -93,92 -148,205 -221,274 -81,77 -162,94 -268,182 -126,104 -371,312 -503,399 -945,628 -3213,1001 -4330,182 -172,-127 -830,-731 -942,-904 -324,-498 -681,-1444 -651,-2095 24,-548 210,-1292 460,-1790 225,-450 888,-1105 1390,-1360 l 218,-139 c 233,-186 450,-173 764,-242 z m 4052,421 c 280,508 706,1217 687,1949 -278,-49 -517,-472 -646,-692 -489,-836 -1087,-1364 -1478,-2133 -302,-595 908,-84 1437,876 z M 852,24672 c -65,-605 1139,-1837 1620,-2286 228,-212 510,-312 743,-521 141,-127 30,-170 230,-113 179,51 112,45 94,194 -80,658 -805,919 -933,1025 -317,264 -691,686 -868,1065 -147,313 -134,394 -306,467 l -228,89 c -140,61 -165,85 -352,80 z m -150,-720 c -133,-200 -161,-279 -176,-581 -30,-562 -33,-1636 159,-2093 109,-260 530,-580 953,-505 222,40 695,297 850,463 72,76 34,20 91,132 -233,81 -655,412 -804,590 -208,249 -639,500 -595,760 223,-5 205,-162 365,-312 372,-352 805,-796 1266,-899 l 184,189 c 5,-9 22,17 32,27 -523,219 -847,612 -1298,1002 -421,363 -965,1185 -1027,1227 z m 9374,-1839 c 251,281 120,93 225,467 444,-85 -116,-635 -203,-764 -289,-425 -497,-447 -623,-746 408,-95 939,-165 1199,132 291,334 460,418 470,943 9,477 -33,845 -178,1254 -125,353 -361,747 -620,897 l -189,-422 c -331,-581 -775,-1687 -1354,-2060 l -294,-233 c -5,-18 -19,-19 -28,-29 723,-212 1492,1321 1670,1436 65,-100 52,-52 102,-157 -237,-439 -581,-903 -948,-1208 l -315,-227 c -121,-101 -37,-15 -100,-109 427,-124 269,-139 880,408 99,89 186,283 306,418 z m 956,-869 c -42,-53 -57,-57 -101,-126 -75,-118 -17,-14 -66,-133 l 103,-183 c 641,-34 428,489 295,688 -134,-78 -139,-132 -231,-246 z M 620,20812 c -33,-121 -66,-144 -13,-288 l 149,-214 c 176,71 238,127 300,332 -180,52 -265,146 -436,170 z m -31,3550 c 35,823 562,534 765,477 -46,400 -91,655 -101,1099 -12,552 292,1348 513,1830 117,256 329,466 472,692 -267,353 -962,656 -862,1358 66,461 456,562 752,284 278,-262 601,-650 924,-874 84,41 192,95 294,153 474,267 1155,562 1709,527 242,-15 629,70 840,-7 220,-81 -112,-34 353,-98 l 1078,-318 1102,-776 c 110,77 20,-13 104,81 85,96 149,320 404,583 755,780 960,88 926,-82 l -182,-486 c -88,-315 -345,-603 -480,-886 50,-146 134,-219 172,-344 58,-189 -28,-157 28,-375 148,-573 85,5 149,-866 54,-738 165,-37 38,-811 -40,-241 9,-192 -82,-413 -66,-162 -95,-281 -118,-443 183,89 93,93 266,208 97,64 189,96 333,119 412,68 385,-32 408,-414 278,-7 391,-130 625,-397 169,-193 294,-485 338,-736 49,-279 111,-232 137,-396 130,-823 -51,-987 -93,-1375 550,-323 56,-1091 -326,-1070 -200,11 -264,161 -368,286 -396,-199 -899,-366 -1464,-194 -346,106 -364,142 -592,304 -274,193 -239,224 -436,466 -355,51 -246,49 -499,129 -26,239 -20,142 -100,289 l 357,629 c -348,-125 -1104,-647 -1983,-555 -356,38 -799,44 -1180,79 -385,34 -739,174 -1090,217 l 102,-412 c -169,-203 -154,-180 -411,-261 -200,-64 -405,-629 -828,-846 -580,-298 -639,-247 -1401,-216 -76,-372 -316,-318 -631,-454 -474,499 33,716 -115,996 -193,365 -260,9 -390,1049 -79,638 -84,1270 206,1855 76,153 115,174 239,296 l 73,73 c 5,6 17,17 25,26 z"
   id="path202" />
   <path
   class="fil0"
   d="m 6305,23824 c 191,8 163,-105 375,59 249,193 739,1255 747,1698 -199,17 -307,-25 -431,63 21,225 63,108 330,148 17,2 29,5 43,8 427,87 -14,1216 -263,1535 -236,301 -859,506 -1399,503 -9,-165 38,-718 -162,-661 -165,47 -15,427 -66,686 -532,41 -1135,-143 -1482,-484 -480,-474 -639,-1339 -478,-1379 l 505,-30 c 47,-90 71,-83 75,-199 l -615,-8 c 15,-346 -13,-512 146,-776 327,-548 920,-1036 1590,-1094 4,164 5,343 53,457 176,-108 145,-317 153,-538 z m -3249,2339 c 34,303 228,727 357,949 169,290 328,542 583,717 l 516,340 c 366,221 949,349 1375,320 519,-36 1209,-196 1500,-598 36,-49 34,-46 61,-76 75,-82 65,-43 151,-167 l 267,-404 c 174,-280 90,-220 155,-473 118,-461 156,-582 29,-1059 -93,-346 -126,-696 -321,-985 -219,-323 -257,-531 -548,-756 l -757,-546 c -1233,-473 -3636,352 -3368,2738 z"
   id="path204" />
   <path
   class="fil0"
   d="m 6669,26764 c 162,-223 -320,-485 -539,-612 l -206,-112 c -340,-218 60,-824 134,-966 121,-236 407,-660 269,-967 -293,21 -396,450 -658,889 -58,98 -89,159 -142,263 -153,296 53,36 -450,273 -527,249 -86,774 317,782 132,2 239,-71 295,-82 201,-42 714,414 859,490 27,15 108,35 121,42 z"
   id="path206" />
   <path
   class="fil0"
   d="m 2491,24564 c 244,41 371,-308 479,-503 294,-535 626,-386 377,-667 -93,112 -167,104 -272,224 -195,223 -287,461 -418,662 -86,130 -161,143 -166,284 z"
   id="path208" />
   <path
   class="fil0"
   d="m 1173,22055 c 221,-16 242,-338 529,-578 108,-90 154,-68 260,-130 l -41,-163 c -392,64 -710,640 -748,871 z"
   id="path210" />
   <path
   class="fil0"
   d="m 3868,23372 c 36,125 54,171 155,199 105,-201 39,-434 -155,-199 z"
   id="path212" />
   <path
   class="fil0"
   d="m 2512,25205 c 122,-112 40,-35 104,-188 -83,-60 4,-30 -136,-51 -90,120 -129,178 32,239 z"
   id="path214" />
   <path
   class="fil0"
   d="m 2467,25866 c 72,-90 196,-64 45,-238 -170,84 -153,114 -45,238 z"
   id="path216" />
  </g>
  <g
   id="g1255"
   transform="translate(-239.56734,2669.3414)"><g
     id="_1647770912"
     transform="matrix(0.64246908,0.17214907,-0.17214907,0.64246908,196768.45,43128.584)">
   <path
   class="fil0"
   d="m 3732,61368 c -90,-551 -113,-845 -370,-1433 -234,-537 -494,-853 -809,-1261 -516,-669 -816,-514 -821,-1262 -4,-623 348,-1157 681,-1404 l 592,-449 1142,-435 c 1492,-413 644,-175 2062,-326 372,-39 671,-3 1025,-15 593,-19 191,-250 768,-246 329,2 663,-14 995,-14 192,0 327,32 493,33 157,1 268,-51 444,-22 173,29 48,40 196,57 270,32 688,-88 911,829 120,489 46,1435 -72,1926 -130,541 -757,1443 -1322,1801 -1290,818 -1672,609 -3398,737 -672,50 -1162,170 -1553,524 -528,478 -701,1045 -878,1179 z m 165,1246 c 239,-497 307,-997 541,-1248 131,-141 163,-221 274,-358 138,-171 477,-474 653,-566 365,-189 1756,-173 2238,-192 748,-28 1127,198 2072,-183 l 576,-322 c 15,-11 46,-36 77,-59 11,-8 41,-31 52,-38 433,-291 354,-182 687,-612 794,-1029 330,-477 660,-1141 72,-146 102,-295 144,-479 32,-141 29,-381 87,-510 58,-130 119,25 61,-500 -34,-307 35,-893 -139,-1070 -78,-79 -57,-23 -142,-128 -276,-340 -371,-311 -664,-548 l -152,-165 c -85,-106 -272,-184 -405,-219 -1835,-487 -3750,-413 -5589,-208 -1058,118 -2476,733 -3119,1649 -346,494 -457,1290 -353,2049 48,352 247,562 400,799 552,856 1155,175 1601,3267 55,382 17,219 144,478 106,220 -3,321 296,304 z"
   id="path42" />
   <path
   class="fil0"
   d="m 3669,57939 c -45,405 832,443 1146,244 124,-79 376,-306 511,-352 280,-94 381,105 649,163 445,97 1250,-74 1535,-92 426,-27 1109,343 1286,-108 -11,-4 -1178,-132 -1358,-161 -351,-57 -1011,82 -1388,133 -576,79 -525,-439 -1223,-62 -202,108 -335,201 -565,247 -597,118 -447,59 -593,-12 z"
   id="path44" />
   <path
   class="fil0"
   d="m 8590,56318 c 47,-127 -54,118 -21,-111 14,-95 163,-378 116,-486 -45,-106 -151,23 -228,69 -474,288 -738,180 -1174,187 -261,4 -565,62 -812,89 -435,48 -520,-121 -841,-73 -263,39 -448,248 -648,171 -34,-13 -745,-522 -1195,128 l 132,109 c 397,-193 529,-489 955,-136 422,348 638,23 1078,-12 205,-16 367,87 610,88 239,2 473,-18 723,-16 398,3 980,80 1305,-7 z"
   id="path46" />
   <path
   class="fil0"
   d="m 2250,57578 c 176,-49 161,-93 208,-301 228,-993 700,-845 508,-1044 -218,-225 -761,800 -716,1345 z"
   id="path48" />
   <path
   class="fil0"
   d="m 2826,57498 c 47,-186 -17,-204 115,-464 80,-159 154,-225 227,-380 -69,-61 -26,-27 -111,-84 -148,95 -410,701 -425,777 -32,168 36,165 194,151 z"
   id="path50" />
   <path
   class="fil0"
   d="m 3142,57579 c 110,-63 273,-445 225,-560 -122,36 -140,105 -199,237 -57,129 -104,200 -26,323 z"
   id="path52" />
  </g><g
     id="_1647774272"
     transform="matrix(0.38977991,-0.38977991,0.38977991,0.38977991,155946.07,88461.588)">
   <path
   class="fil0"
   d="m 38507,6994 c 1,404 -321,476 -784,912 -286,269 -622,557 -886,821 -212,-134 -387,-490 -608,-634 l 83,-98 c 7,-8 18,-22 26,-30 420,-507 473,-373 811,-689 257,-241 600,-710 950,-828 97,174 116,113 192,321 -263,171 -983,868 -1257,1143 -105,105 -430,293 -382,414 98,250 883,-669 1298,-998 95,-76 148,-119 238,-189 169,-132 108,-118 319,-145 z M 22295,5853 c 909,36 837,-347 1439,-796 244,-182 245,-26 1038,-676 656,-538 1138,-630 1808,-927 704,-312 1584,-315 2270,-366 1926,-145 4367,88 5994,765 719,299 319,155 887,456 1032,546 1505,998 2168,1947 -228,163 -797,848 -1322,1255 -218,168 -361,319 -517,377 -122,-239 -206,-342 -390,-464 -48,-32 -49,-29 -94,-68 -752,-644 -2493,-1557 -3462,-1778 -1065,-244 -2707,-531 -3702,-228 -601,182 -895,125 -1712,432 -457,171 -1514,874 -1936,1214 -293,237 -267,293 -521,563 -109,-47 -17,18 -143,-81 -357,-278 -1441,-1367 -1721,-1461 -141,318 817,1048 1180,1410 83,82 143,126 220,210 l 145,177 c 75,101 11,8 75,109 -90,269 -124,270 -62,573 410,-40 509,-64 703,-334 716,-999 522,-544 864,-800 562,-421 357,-261 1113,-605 700,-318 1865,-727 2661,-725 451,0 1498,-158 2110,37 427,136 1209,235 1776,483 283,124 484,231 765,357 899,404 1371,729 2007,1372 302,305 382,463 367,766 575,8 281,500 856,58 397,-305 0,184 665,-299 10,-8 22,-17 33,-24 l 152,-64 c 223,-106 620,-487 714,-665 181,-345 -69,-266 491,-589 -175,-210 -100,-568 -1285,-1874 -367,-404 -208,-424 -779,-826 -1390,-976 -1332,-1434 -3685,-2033 -751,-191 -1302,-286 -2078,-383 -634,-79 -2807,-219 -3292,-46 l -969,264 c -478,158 -827,205 -1244,417 l -534,264 c -629,394 -1809,1203 -2343,1725 -136,134 -303,228 -429,375 -76,89 -274,375 -281,506 z m 14760,520 c -8,-5 64,-218 -382,108 l -663,569 c -433,381 -137,410 -36,343 l 476,-494 c 181,-143 598,-409 605,-526 z"
   id="path82" />
   <path
   class="fil0"
   d="m 32550,9956 c 321,-163 292,-222 426,-578 76,-203 293,-646 -25,-670 -42,61 -123,462 -183,613 -105,268 -199,298 -218,635 z m -572,-242 c 35,-323 333,-1083 461,-1361 364,27 1525,582 1772,795 295,254 1227,1049 1340,1293 -168,150 -841,491 -1132,856 -124,155 -200,246 -374,334 -175,-154 -244,-387 -415,-564 -211,-217 -529,-579 -764,-733 -108,-71 -170,-112 -262,-219 l -241,-236 c -111,-67 -248,-126 -385,-165 z m 1424,-616 c -213,109 -15,49 -246,611 -108,262 -214,324 -228,620 386,-68 242,-210 397,-550 105,-230 285,-477 77,-681 z M 29186,8043 c -56,60 74,-80 0,0 z m -2163,3146 c -305,-84 -1139,-846 -1374,-1070 93,-104 179,-176 314,-265 209,-136 243,-229 483,-429 82,-69 54,-52 147,-120 214,-156 139,-98 311,-275 113,-118 208,-142 338,-252 136,-114 159,-148 350,-244 60,-30 1258,-538 1477,-555 53,-4 96,-2 122,-3 l 226,13 c 411,94 425,-26 772,-28 732,-2 1378,133 2043,282 -81,273 -128,417 -235,679 l -215,484 c -8,14 -37,63 -44,73 l -50,73 c -586,-68 -296,-215 -1547,-148 -373,20 -418,-141 -1282,187 -762,289 -1508,844 -1836,1598 z m 487,622 35,-259 c 267,-136 142,-66 328,-264 l 345,-302 c 983,-571 1639,-930 2828,-866 577,31 1316,327 1732,727 280,269 653,554 906,974 86,144 151,267 252,378 387,-11 315,-81 506,-288 391,-427 988,-852 1565,-1018 77,178 73,190 300,239 41,-641 -474,-1018 -966,-1505 -1529,-1515 -3423,-2618 -5689,-2397 -584,57 -1584,397 -2036,685 l -228,112 c -396,172 -534,367 -781,552 -534,399 -1551,965 -1032,1765 184,285 831,882 1128,1055 l 322,220 c 151,106 242,187 485,192 z"
   id="path84" />
   <path
   class="fil0"
   d="m 31483,11980 c 102,859 111,1302 -459,1709 -765,547 -2040,93 -1749,-1149 81,-343 220,-497 490,-652 781,-449 1142,-142 1718,92 z m -1222,-725 c -1085,260 -1575,1074 -1251,2038 197,587 378,717 776,1032 121,95 244,258 539,369 216,82 532,105 792,37 675,-177 688,-302 1045,-709 122,-140 295,-404 325,-594 36,-236 -46,-185 -93,-324 -140,-417 -141,-514 -416,-973 -204,-340 -239,-230 -471,-439 -339,-305 -744,-558 -1246,-437 z"
   id="path86" />
   <path
   class="fil0"
   d="m 30707,13297 c 394,35 611,-886 338,-1228 -445,55 115,328 -237,922 -107,181 -117,16 -101,306 z"
   id="path88" />
   <path
   class="fil0"
   d="m 35468,6669 c 213,181 232,-34 489,-261 122,-109 399,-324 416,-495 -242,-25 -881,675 -905,756 z"
   id="path90" />
   <path
   class="fil0"
   d="m 33495,10709 c 222,-81 672,-830 532,-1101 -124,74 -88,46 -149,230 -52,159 -61,172 -123,309 -183,405 -222,291 -260,562 z"
   id="path92" />
   <path
   class="fil0"
   d="m 30461,12963 c 679,-59 116,-1414 113,-488 -1,377 -68,221 -113,488 z"
   id="path94" />
   <path
   class="fil0"
   d="m 35275,6000 c 249,-29 53,37 322,-220 113,-108 176,-115 202,-304 -277,-5 -447,291 -524,524 z"
   id="path96" />
   <path
   class="fil0"
   d="m 30195,12936 c 156,-103 197,-165 47,-332 -196,80 -164,173 -47,332 z"
   id="path98" />
  </g><g
     id="_605521000"
     transform="matrix(1.277256,0,0,1.277256,130134.03,60212.812)">
   <path
   class="fil0"
   d="m 38542,34546 c -652,3 -920,-554 -421,-827 570,-313 835,145 421,827 z m -4061,-4063 c 592,530 454,317 636,858 490,1462 2769,1611 4048,1930 1001,250 2211,265 3214,471 301,62 283,45 646,14 l 132,-176 c 61,-56 37,-18 78,-59 75,-74 38,14 79,-138 21,-78 18,-114 30,-192 75,-497 145,-1105 443,-1368 90,-80 160,-125 256,-199 118,-90 174,-154 319,-209 -95,590 -349,2428 -793,2891 -141,147 -157,185 -351,283 -808,404 -272,116 -735,479 -666,522 -1852,71 -2541,-42 -204,-33 -903,-78 -1059,-243 510,-360 48,-1351 -485,-1372 -380,-15 -911,494 -605,922 93,130 232,248 234,374 -303,86 -2050,-352 -2460,-443 -457,-102 -684,-378 -918,-570 l -487,-600 c -33,-93 -41,-238 -35,-346 263,213 591,815 873,1003 -94,-476 -1071,-1137 -856,-1703 44,-116 30,-78 91,-146 122,241 719,1050 921,1165 6,-10 134,9 -36,-246 -62,-92 -87,-107 -169,-195 -249,-267 -404,-540 -601,-842 -147,-227 -186,-292 -49,-500 456,378 548,931 810,988 108,-183 -48,-245 -160,-412 -377,-564 -655,-759 -579,-1110 5,-23 27,-111 39,-140 57,-145 4,-51 70,-127 z m 9165,1234 c 24,-586 -46,-613 686,-1151 l 156,-100 c -99,324 26,546 -261,805 -157,143 -396,363 -581,446 z m -8665,-1006 c -86,-69 -156,-126 -251,-203 -103,-84 -116,-140 -230,-222 l 12,-403 c 182,111 480,634 469,828 z m 8743,102 c 2,-519 -8,-556 280,-803 143,-123 395,-382 602,-423 -31,410 -50,556 -266,761 -106,101 -182,142 -300,242 -209,177 -85,146 -316,223 z m -8757,-541 c -307,-596 -482,-394 -268,-1457 117,90 323,526 369,638 46,113 36,651 -101,819 z m 685,-3066 c -106,-100 -112,-186 -180,-327 -66,-137 -94,-201 -154,-340 -163,-375 -227,-274 -110,-763 l 905,-4965 c 8,-1232 -422,-1169 -22,-1503 284,-238 329,-199 730,-182 336,15 575,9 902,45 325,37 496,120 854,143 1028,64 1615,165 2608,322 148,24 293,26 456,39 206,17 217,57 395,94 l 2670,303 c 755,102 818,359 870,1140 49,736 -26,2871 -155,3584 -134,740 -231,1827 -404,2528 -36,147 -56,268 -83,414 -175,955 -160,545 -826,1163 l -265,200 81,-238 c 15,-80 30,-178 38,-236 l 195,-1515 c 99,-655 201,-1299 290,-1956 104,-768 240,-1248 335,-1963 48,-368 35,-653 -10,-1030 -81,-679 -66,-856 -566,-1131 -478,-264 -600,-320 -1202,-410 -686,-102 -1388,-94 -2033,-219 -298,-58 -737,-114 -1034,-144 l -2914,-420 -334,1860 c -94,607 -263,1339 -308,1851 l -185,1479 z m 8147,2738 c 8,-545 -6,-548 296,-831 161,-152 415,-401 670,-445 -83,506 -51,534 -356,807 -182,163 -383,359 -610,469 z m -8766,-915 c -80,-141 -240,-446 -244,-567 l 187,-910 c 29,32 32,29 62,84 31,58 18,37 41,102 297,847 355,306 161,1243 l -84,214 z m 219,-1299 c -353,-871 -210,-653 -158,-1087 2,-18 11,-22 17,-32 74,86 319,540 375,666 124,281 57,519 -38,789 l -130,-180 c -20,-40 -41,-95 -66,-156 z m 5326,-6856 c 801,177 3117,311 3269,422 432,514 33,2400 -57,3090 l -566,4204 c -159,1002 -156,2265 -376,3549 -104,612 -36,1016 -577,1208 -211,-40 -170,-79 -378,-134 l -1287,-198 c -838,-54 -4497,-724 -4710,-1201 -59,-133 -114,-713 -103,-852 123,-1610 180,-1078 486,-2455 116,-519 274,-1073 394,-1581 66,-275 142,-530 194,-803 48,-249 64,-570 123,-815 84,-49 124,0 124,0 -69,-190 -74,80 -89,-268 l 170,-1607 c 116,-565 -5,-766 120,-1274 54,-220 -30,-343 -20,-590 16,-399 95,-896 79,-1282 289,5 516,154 773,214 689,160 1019,180 1586,306 271,60 578,9 845,67 z m -5002,-1645 c -14,592 -101,1099 -233,1624 -66,262 -44,522 -99,796 l -455,2340 c -91,491 -250,1076 -298,1544 l -479,2724 c -96,298 -198,1243 -260,1496 -27,113 -85,172 -119,373 -319,1886 -604,2640 957,4074 224,206 934,501 1227,620 l 3583,602 c 449,110 627,61 1196,197 452,108 1022,284 1491,271 391,-10 778,-66 1108,-290 109,-74 136,-159 247,-248 668,164 677,-464 934,-915 293,-516 482,-1680 549,-2330 29,-284 108,-601 129,-855 52,-615 180,-1114 218,-1710 38,-605 189,-1096 319,-1631 l 271,-1658 c 104,-723 80,-1870 225,-2167 107,-219 221,-2784 78,-3125 -358,-854 -7,-270 -561,-878 -155,-170 -12,-121 -236,-257 -220,-133 -369,-198 -621,-326 -542,-276 -3233,-399 -3415,-445 -241,-61 -572,-108 -861,-126 l -1740,-202 c -581,-77 -1274,-43 -1824,-119 -401,-55 -879,80 -1087,384 -175,256 2,79 -244,237 z"
   id="path149" />
   <path
   class="fil0"
   d="m 38336,24047 50,163 c 293,-84 649,-242 908,-352 339,-143 547,-336 1042,-263 -245,518 -1089,1277 -1530,1758 -128,140 -182,107 -177,312 529,3 1085,-700 2267,-821 -141,589 -1076,1437 -1611,2069 -100,118 -196,237 -288,346 -130,153 -233,146 -216,369 259,9 1613,-899 2145,-979 -213,922 -1520,2063 -1400,2628 262,-69 202,-246 427,-700 224,-453 1315,-1579 1166,-2207 -369,-23 -1389,701 -1826,788 219,-413 1224,-1264 1563,-1823 l 223,-315 c 86,-145 152,-260 112,-394 -460,-128 -1858,607 -2035,648 69,-177 607,-710 789,-896 189,-193 630,-721 696,-963 -565,-257 -1272,319 -1820,421 239,-639 837,-899 1040,-1124 150,-166 29,-368 -166,-169 -102,105 -21,122 -332,398 -479,426 -850,966 -1027,1106 z"
   id="path151" />
   <path
   class="fil0"
   d="m 42723,21966 c 181,-80 223,-237 461,-94 266,134 190,743 160,1094 -12,143 -74,135 41,191 309,151 320,-1307 -64,-1513 -131,-70 -309,-133 -435,-41 -16,11 -149,145 -156,156 -76,123 -61,59 -7,207 z"
   id="path153" />
   <path
   class="fil0"
   d="m 39389,34679 c 107,-23 166,6 246,-425 11,-56 40,-234 42,-281 9,-190 -35,-141 -165,-159 -56,111 -45,266 -84,439 -48,208 -108,310 -39,426 z"
   id="path155" />
   <path
   class="fil0"
   d="m 43170,24182 c 117,25 59,-6 155,-90 9,-197 25,-262 -133,-291 -100,116 -105,238 -22,381 z"
   id="path157" />
   <path
   class="fil0"
   d="m 43081,22855 c 88,-68 123,-73 109,-222 -227,-37 -232,111 -109,222 z"
   id="path159" />
   <path
   class="fil0"
   d="m 42890,23371 c 50,23 43,72 165,-18 -26,-200 -6,-146 -154,-145 -68,116 -66,59 -11,163 z"
   id="path161" />
  </g><g
     id="_605527336"
     transform="matrix(0.64246908,0.17214907,-0.17214907,0.64246908,180550.9,35867.433)">
   <path
   class="fil0"
   d="m 25052,55323 c 583,185 1250,595 1529,1048 319,518 -1,1584 -274,2011 -606,945 -1170,1252 -1296,2573 -37,380 3,926 -41,1262 -373,-203 -598,-660 -1782,-1054 -808,-269 -1197,168 -2496,-254 l -1604,-515 -1372,-745 c -410,-295 -509,-293 -469,-989 36,-640 336,-1259 840,-1649 209,-161 110,-199 568,-471 145,-87 272,-179 434,-284 183,-120 264,-158 509,-219 219,-54 334,-91 551,-165 320,-110 268,17 698,-154 413,-163 1171,-331 1601,-388 491,-65 797,-98 1297,-12 309,54 326,8 630,-2 128,-5 217,-7 339,28 l 248,127 c 82,-61 2,21 52,-61 z m -226,159 c -76,2 150,-3 0,0 z m -3137,-692 c -825,119 -771,-95 -2078,288 -306,90 -566,164 -846,318 -190,104 -551,336 -692,475 -975,966 -1472,1707 -1200,3324 27,163 290,671 392,770 102,102 187,179 312,272 462,344 215,287 1042,711 l 1219,533 c 231,79 127,99 439,147 l 953,215 c 343,89 641,118 992,176 674,113 817,-298 2069,236 702,299 1133,1341 1058,189 -109,-1669 544,-1881 937,-2592 115,-209 692,-602 904,-1477 163,-673 162,-1301 -189,-1936 -207,-374 -808,-1000 -1143,-1187 -950,-530 -1046,-277 -1902,-437 -461,-85 -1811,-91 -2267,-25 z"
   id="path219" />
   <path
   class="fil0"
   d="m 19029,57491 c 45,116 29,56 95,165 483,80 635,-331 1172,-422 409,-69 989,196 1384,249 600,79 384,-331 1394,-181 347,52 1171,147 1463,-3 -80,-354 -759,-149 -1468,-202 -243,-19 -511,-103 -746,-73 -301,38 -446,164 -653,207 -708,147 -1401,-802 -2641,260 z"
   id="path221" />
   <path
   class="fil0"
   d="m 19105,59292 c 211,406 720,58 1003,-2 23,-5 1389,-53 1430,-50 190,11 418,64 624,98 487,82 1558,189 1932,6 -335,-215 -726,-153 -1204,-162 -505,-9 -861,-98 -1305,-144 -442,-46 -2078,-69 -2480,254 z"
   id="path223" />
   <path
   class="fil0"
   d="m 23231,58907 c 216,-42 157,-116 256,-276 97,-157 183,-162 148,-399 -204,10 -184,133 -262,279 -86,160 -188,201 -142,396 z"
   id="path225" />
   <path
   class="fil0"
   d="m 23689,58945 c 110,2 386,-363 392,-484 -231,-32 -402,404 -392,484 z"
   id="path227" />
   <path
   class="fil0"
   d="m 24922,57440 c 499,-105 -226,-498 0,0 z"
   id="path229" />
   <path
   class="fil0"
   d="m 25663,57266 c 129,130 206,125 241,-86 -109,-1 -43,-29 -159,18 -18,7 -81,62 -82,68 z"
   id="path231" />
  </g></g>
  <g
   id="_605528824"
   transform="matrix(1.6517292,-0.95362629,0.95362629,1.6517292,-7324.533,86817.217)">
   <path
   class="fil0"
   d="m 3916,14342 c 217,-35 302,86 706,-13 397,-98 431,-22 794,-25 347,-4 422,-62 805,6 606,109 1261,14 1761,33 1044,40 1334,-180 2465,39 -28,194 -76,418 -248,499 -12,6 -89,26 -103,30 l -3013,316 c -712,15 -1295,-89 -1984,-93 -232,-2 -705,-81 -888,-150 -283,-106 -396,-267 -295,-642 z m 104,-223 c -89,-195 341,-544 520,-808 220,-326 70,-166 386,-341 140,-77 287,-273 822,-574 420,-237 247,-95 484,-189 172,-68 293,-176 496,-216 927,-180 2006,-270 2719,367 305,271 382,424 619,780 199,298 337,611 400,1014 -669,-114 -817,-139 -1536,-92 -546,36 -1104,21 -1668,46 -643,29 -1706,-109 -2523,-57 -250,16 -477,160 -719,70 z m 676,-7049 c 168,258 252,401 404,724 263,562 1796,3245 1892,3594 l -495,97 -704,-1465 C 5560,9494 4710,8008 4315,7219 4099,6786 3663,6255 3547,5853 c 82,-69 165,-54 377,-222 262,466 491,1008 772,1439 z M 3352,4449 c 92,-10 172,77 238,168 483,665 -217,1246 -525,795 -106,-155 -131,-473 -102,-618 87,-439 203,-324 389,-345 z m 9808,8 c 117,-109 305,-200 512,-245 11,336 51,430 305,484 l 242,76 c -116,298 -439,551 -802,379 -111,-405 87,-385 -257,-694 z m 1640,-821 c 124,368 215,845 21,1262 -179,386 -360,517 -750,698 -445,207 -591,336 -1149,97 -338,-145 -420,-347 -558,-527 -79,-103 -92,-101 -123,-284 114,-64 216,-120 347,-194 692,-391 500,510 710,663 243,175 576,86 768,-81 824,-720 -12,-775 -55,-790 -125,-44 -120,96 -166,-380 154,-94 788,-415 955,-464 z m -4675,221 c 125,-105 151,-181 297,-293 l 728,-443 c 198,-109 251,-40 458,-130 253,-110 566,-264 807,-363 294,-121 197,-121 383,-205 174,-78 248,-72 404,-177 69,-46 116,-84 183,-129 l 1422,-613 c 320,-133 592,14 876,158 307,156 525,141 709,404 -92,80 -581,469 -692,521 -464,214 -103,-66 -766,450 -671,521 -1534,958 -2334,1315 -824,367 -442,242 -790,423 -164,86 -285,88 -447,184 -133,78 -206,126 -376,211 -276,138 -464,365 -808,424 -19,-609 38,-1209 -54,-1737 z m -6370,598 c 198,-142 621,-239 906,-395 454,-249 1365,-659 1723,-891 631,-408 999,-558 1694,-917 299,-155 578,-246 910,-397 l 1691,-858 c 65,318 58,540 48,847 l -1663,727 c -526,286 -1085,503 -1661,728 -482,189 -72,126 -888,330 -624,155 -978,378 -1710,671 -255,102 -604,351 -785,402 -154,-126 -73,-138 -265,-247 z m 8339,-2150 c 99,-260 564,-963 751,-1145 l 102,89 c 186,201 152,296 141,487 -110,96 -304,262 -476,303 53,-152 111,-188 187,-330 166,-312 -25,-269 -44,-277 l -64,120 c -4,10 -7,23 -11,34 -27,74 -15,63 -47,134 -203,460 -271,494 -539,585 z m -798,372 c 35,-144 386,-692 460,-792 68,-91 128,-125 195,-214 304,-399 411,-831 690,-936 99,254 96,208 29,340 l -497,773 c -354,545 -369,757 -877,829 z m -180,-219 c -48,-158 -102,-209 -35,-346 l 843,-1275 c 286,-479 236,-429 449,-359 100,336 -754,1279 -877,1502 -57,104 -100,174 -151,253 -102,157 -118,182 -229,225 z m -27,-642 c -5,-10 -11,-25 -13,-32 -110,-407 183,-593 321,-844 l 348,-600 c 113,-137 -8,-104 267,-77 -30,203 -852,1475 -923,1553 z m -105,-584 c -127,-520 170,-790 555,-954 z M 2774,4475 c -253,254 -137,1029 416,1301 205,101 174,174 290,394 84,160 131,314 217,459 l 705,1321 c 484,880 1004,1732 1391,2660 122,292 379,719 447,974 -88,30 -213,51 -304,105 -748,446 -1123,763 -1657,1491 -186,254 -543,608 -574,925 -18,190 6,7 -46,157 -76,225 10,539 134,688 91,110 136,89 273,175 100,63 185,101 312,135 776,210 2687,337 3321,256 206,-27 144,24 355,-5 109,-15 272,-57 382,-69 735,-80 637,46 1618,-190 203,-49 379,-9 557,-110 62,-36 54,-38 145,-66 19,-151 40,-238 63,-396 35,-239 -78,-301 -29,-523 134,-614 -249,-971 -568,-1448 -191,-285 -412,-484 -704,-692 -223,-159 -270,-200 -602,-341 -443,-190 -1046,-257 -1563,-336 l -412,-802 C 6784,10263 6635,10060 6504,9758 6306,9303 6073,8965 5883,8534 5811,8372 5732,8290 5642,8145 5492,7904 5370,7553 5221,7350 5051,7117 4115,5633 4082,5394 l 73,-463 c 93,-103 275,-111 390,-173 160,-88 216,-137 364,-226 259,-155 550,-196 821,-351 289,-165 405,-287 794,-375 168,-38 322,-59 488,-103 l 1255,-542 c 269,-138 548,-246 822,-394 269,-145 1520,-699 1696,-722 l 214,745 c -160,117 -1054,593 -1151,959 -28,105 -141,1698 -81,1916 52,187 118,106 259,71 396,-98 129,181 1430,-417 254,-117 194,-221 606,-265 245,534 682,849 1264,984 236,55 568,30 787,-49 173,-62 131,-102 287,-205 138,-92 207,-74 314,-132 109,-59 135,-144 230,-222 370,-302 570,-868 435,-1355 -13,-45 -100,-255 -127,-316 -25,-58 -42,-86 -76,-152 -77,-151 -40,-30 -84,-189 92,-32 210,-43 285,-81 31,-16 168,-131 229,-174 414,-292 523,-323 957,-663 171,-134 387,-154 599,-114 -7,-396 -392,-451 -686,-613 -433,-237 -910,-470 -1399,-583 -467,-108 -1014,286 -1466,444 -197,-238 25,-118 -359,-328 -140,-76 -323,-531 -588,-810 -144,-152 -267,-132 -371,-342 -219,-5 -316,-76 -438,-154 -300,27 -512,-20 -733,125 -144,94 -283,276 -356,488 -52,149 -43,189 -178,249 -95,42 -195,72 -320,128 L 7365,2360 c -799,402 -1433,821 -2236,1186 -194,89 -361,190 -563,290 -320,159 -508,310 -817,445 -205,89 -139,4 -360,-9 -78,-4 -304,26 -338,39 l -198,107 c -94,56 -12,-7 -79,57 z"
   id="path234" />
   <path
   class="fil0"
   d="m 16179,4353 c 99,39 166,169 381,208 l 1208,191 c 887,145 620,-153 286,-321 -167,-85 -1009,-169 -1246,-178 -506,-19 -196,-75 -629,-117 z"
   id="path236" />
   <path
   class="fil0"
   d="m 12510,8576 c 126,-324 291,-1513 275,-1901 -201,-128 51,-87 -210,-93 -126,170 -208,832 -279,1100 -90,343 -257,883 214,894 z"
   id="path238" />
   <path
   class="fil0"
   d="m 14538,8363 c 27,-239 -146,-753 -210,-937 -62,-175 -78,-265 -131,-446 -38,-130 -41,-86 -102,-171 -109,-153 15,-96 -169,-155 -236,133 -11,441 102,999 79,382 167,782 510,710 z"
   id="path240" />
   <path
   class="fil0"
   d="m 17470,6619 c -67,-173 -58,-39 -154,-200 -63,-107 -17,-108 -103,-221 l -135,133 c -265,-114 -456,-252 -683,-375 -217,-117 -368,-305 -695,-313 -25,151 3,154 92,231 215,186 427,328 690,437 311,129 622,476 988,308 z"
   id="path242" />
   <path
   class="fil0"
   d="m 14918,6388 c -76,137 -18,149 140,407 105,172 396,626 560,787 111,108 222,209 448,185 48,-264 -132,-143 -512,-751 -126,-201 -358,-731 -636,-628 z"
   id="path244" />
   <path
   class="fil0"
   d="m 6360,12428 c -507,56 -1242,1135 -1115,1264 195,199 202,-225 506,-614 l 425,-344 c 209,-113 140,-26 179,-135 26,-74 9,-97 5,-171 z"
   id="path246" />
   <path
   class="fil0"
   d="m 6046,13689 c 141,-111 63,-302 412,-584 103,-83 112,-49 111,-209 -266,-19 -335,155 -451,319 -37,51 -129,196 -157,254 -79,161 -82,170 85,220 z"
   id="path248" />
   <path
   class="fil0"
   d="m 6524,13666 44,171 c 141,-58 55,78 123,-81 19,-44 -1,-104 -8,-164 -83,23 -129,21 -159,74 z"
   id="path250" />
   <path
   class="fil0"
   d="m 3521,5097 c -45,-146 -6,-120 -126,-178 -74,133 -53,156 126,178 z"
   id="path252" />
  </g>
  <g
   id="_605530576"
   transform="matrix(0.74817533,0,0,0.74817533,18659.726,58801.052)">
   <path
   class="fil0"
   d="m 26038,26392 c 106,-103 260,-242 395,-296 0,793 -20,1521 -52,2306 -26,646 -194,1026 -844,891 l -497,-117 -74,-1756 z m -1057,435 c -7,-212 -91,-848 -12,-1006 66,-132 100,-82 189,-129 228,-118 -12,-36 304,-371 l 1144,-884 c 370,-191 583,-515 831,-473 376,632 100,3678 50,4573 -25,425 -39,1762 -526,1938 -648,234 -1497,-124 -1930,-361 v -589 c 641,221 864,468 1461,197 388,-177 358,-331 471,-728 42,-149 38,-49 86,-228 81,-307 -32,-1676 -109,-1968 -155,-595 181,-755 -446,-1028 l -221,-41 c -393,25 -1194,1047 -1292,1098 z m -1075,5806 c -326,52 -692,202 -933,338 -988,562 -2257,400 -3349,303 -1321,-117 -1890,-781 -2249,-957 l -695,-566 c -105,-120 -182,-236 -350,-312 -7,-141 -31,-272 -14,-362 127,-695 76,-516 143,-1194 l 50,-1663 c -20,-364 93,-1057 -27,-1686 l -147,-1651 c 362,105 654,347 1397,266 194,-21 335,-34 542,-36 777,-10 1482,-113 2252,-149 561,-26 2224,55 2334,41 270,-37 1099,-310 1283,-463 125,-103 227,-205 390,-246 -93,420 -112,1633 -104,2123 l -1,2231 c -38,617 -2,1395 -122,2077 -61,349 -43,701 -96,1033 -75,472 -251,495 -304,873 z m -7751,-8998 c 154,-773 671,-942 939,-1232 102,-111 47,-101 181,-182 503,-308 1889,-545 2574,-586 1029,-61 1606,4 2550,205 132,29 150,67 262,93 563,133 687,-52 1416,351 234,130 268,87 522,155 30,423 28,607 -246,802 -564,-496 -992,-372 -1486,-416 -174,-16 -305,-70 -494,-77 -222,-9 -405,9 -616,-26 -241,-41 -294,-67 -554,-69 -412,-4 -765,-73 -1170,-41 -392,31 -2892,313 -3213,469 l -531,410 c -94,74 -95,156 -112,117 -4,-7 -15,18 -22,27 z m 1637,-2012 c 130,-98 85,-25 220,-156 -9,-5 -24,-25 -28,-14 l -82,-2 c -358,89 -610,146 -957,400 -1703,1246 -974,2050 -987,2587 -18,765 39,1368 20,2297 -17,820 -256,4111 -128,4456 77,208 495,757 633,893 l 1066,865 c 492,297 1416,697 1988,762 1354,153 2622,366 3944,-244 662,-306 221,-35 733,-435 131,-103 110,-53 88,-224 181,-25 145,11 239,-77 163,-150 -55,-39 195,-143 12,-92 37,-174 49,-242 14,-79 15,-147 27,-237 l 169,-1508 c 225,38 550,211 718,326 208,142 151,9 529,281 312,224 1410,343 1694,-312 303,-699 351,-814 394,-1730 32,-690 76,-1355 118,-2025 37,-595 15,-1939 -120,-2531 -42,-182 -255,-583 -376,-695 l -319,-224 c -109,-52 -55,-50 -170,-75 -346,-75 -394,-157 -666,-73 -453,141 -1123,872 -1466,1228 -176,183 -93,184 -314,282 11,-382 -75,-1327 29,-1507 111,-191 125,-101 132,-413 8,-333 -137,-590 -303,-780 -173,-198 -328,-421 -530,-543 -369,-223 -405,-328 -660,-367 -326,-50 -683,-14 -991,-97 l -1974,-200 c -4,7 -12,11 -13,21 l -96,-1 c -4,-4 -18,-15 -26,-23 -208,87 -243,25 -375,219 l -165,-121 c -92,97 -25,48 -129,83 46,-55 73,-74 136,-132 -315,69 2,92 -397,115 -400,22 -448,-68 -621,6 -6,2 -22,12 -29,14 -164,62 -172,-54 -277,175 -157,-125 -26,-44 -190,-76 -16,-3 -25,-8 -41,-9 -55,-6 -31,41 -130,-52 39,146 40,72 12,138 -84,-25 -50,3 -101,-51 -3,-3 -8,-16 -11,-19 l -165,-17 c -3,7 -8,11 -9,20 -1,10 -9,18 -10,20 -63,126 -65,47 -29,136 z"
   id="path255" />
   <path
   class="fil0"
   d="m 23948,28073 c 203,-223 54,-1001 49,-1337 -4,-320 70,-1191 -94,-1381 -281,73 -111,736 -127,1290 -8,285 33,487 33,764 0,287 -64,548 139,664 z"
   id="path257" />
   <path
   class="fil0"
   d="m 17312,28176 c -103,-557 -65,-2150 -111,-2361 -40,-183 -30,-160 -142,-190 -133,195 -9,1201 9,1514 16,284 -19,1111 36,1169 62,64 174,-32 208,-132 z"
   id="path259" />
   <path
   class="fil0"
   d="m 21447,32828 45,143 c 301,-47 -68,-71 697,-130 l 672,-219 c 350,-108 1067,-538 1050,-719 -31,-327 -726,626 -1765,747 -241,28 -546,76 -699,178 z"
   id="path261" />
   <path
   class="fil0"
   d="m 23303,29898 c 35,-132 89,-65 81,-414 -9,-327 97,-1580 24,-1783 -112,-7 -184,-144 -204,395 -8,197 0,417 -3,620 -5,353 -120,968 102,1182 z"
   id="path263" />
   <path
   class="fil0"
   d="m 17674,27155 217,-120 c -9,-206 -51,-381 -41,-661 5,-143 57,-626 -106,-599 -152,26 -68,476 -71,645 -4,240 -49,505 1,735 z"
   id="path265" />
   <path
   class="fil0"
   d="m 18500,26755 118,-34 -146,-729 c -60,-171 -40,-126 -152,-151 -80,154 73,775 180,914 z"
   id="path267" />
   <path
   class="fil0"
   d="m 21716,32351 c 145,-1 255,-133 381,-219 148,-101 258,-121 387,-245 -205,-123 -719,244 -768,464 z"
   id="path269" />
   <path
   class="fil0"
   d="m 23740,28716 154,134 c 113,-156 119,-165 9,-286 -140,70 -86,15 -163,152 z"
   id="path271" />
   <path
   class="fil0"
   d="m 23732,29194 14,155 c 26,1 100,114 169,-27 41,-86 -12,-131 -37,-174 z"
   id="path273" />
   <path
   class="fil0"
   d="m 19535,26072 76,-143 -139,-77 c -38,178 -37,144 63,220 z"
   id="path275" />
   <path
   class="fil0"
   d="m 18976,26014 c 58,65 115,85 181,-37 -67,-45 -148,-81 -181,37 z"
   id="path277" />
  </g>
 </g>
</svg>
