<?xml version="1.0" encoding="UTF-8" standalone="no"?>
<!-- Created with Inkscape (http://www.inkscape.org/) -->

<svg
   width="180"
   height="180"
   viewBox="0 0 180 180"
   version="1.1"
   id="svg1"
   inkscape:version="1.4 (e7c3feb100, 2024-10-09)"
   sodipodi:docname="postme.svg"
   xmlns:inkscape="http://www.inkscape.org/namespaces/inkscape"
   xmlns:sodipodi="http://sodipodi.sourceforge.net/DTD/sodipodi-0.dtd"
   xmlns="http://www.w3.org/2000/svg"
   xmlns:svg="http://www.w3.org/2000/svg">
  <sodipodi:namedview
     id="namedview1"
     pagecolor="#ffffff"
     bordercolor="#000000"
     borderopacity="0.25"
     inkscape:showpageshadow="2"
     inkscape:pageopacity="0.0"
     inkscape:pagecheckerboard="false"
     inkscape:deskcolor="#d1d1d1"
     inkscape:document-units="px"
     labelstyle="default"
     showgrid="true"
     inkscape:zoom="0.79156676"
     inkscape:cx="200.86745"
     inkscape:cy="272.87654"
     inkscape:window-width="1920"
     inkscape:window-height="1013"
     inkscape:window-x="0"
     inkscape:window-y="0"
     inkscape:window-maximized="1"
     inkscape:current-layer="layer1">
    <inkscape:grid
       id="grid1"
       units="px"
       originx="0"
       originy="0"
       spacingx="1"
       spacingy="1"
       empcolor="#ff0000"
       empopacity="0.30196078"
       color="#0099e5"
       opacity="0.14901961"
       empspacing="4"
       enabled="true"
       visible="true" />
  </sodipodi:namedview>
  <defs
     id="defs1" />
  <g
     inkscape:label="Layer 1"
     inkscape:groupmode="layer"
     id="layer1">
    <path
       style="font-size:85.3333px;line-height:1;font-family:aleo;-inkscape-font-specification:aleo;fill:#3a2d32;stroke-linecap:round;stroke-linejoin:round;fill-opacity:1"
       d="M 15.973261,76.228447 V 15.044472 h 18.175993 q 7.338663,0 12.373328,2.218666 5.119998,2.218666 7.76533,6.485331 2.645332,4.181331 2.645332,10.239996 0,5.887997 -2.815999,10.239995 -2.730665,4.351998 -7.850663,6.741331 -5.119998,2.389332 -12.117328,2.389332 h -9.813329 v 22.869324 z m 8.362664,-29.439988 h 9.813329 q 4.522665,0 7.76533,-1.535999 3.242665,-1.621333 4.949331,-4.437332 1.791999,-2.901332 1.791999,-6.826663 0,-5.802665 -3.669331,-9.04533 -3.583999,-3.327999 -10.837329,-3.327999 H 24.335925 Z M 9.829264,76.228447 v -3.498665 q 0,-0.768 0.341333,-1.194666 0.341333,-0.512 1.024,-0.597333 l 6.399997,-1.365333 0.938666,6.655997 z M 18.53326,15.044472 17.594594,21.70047 11.194597,20.335137 Q 10.51193,20.16447 10.170597,19.737804 9.829264,19.311137 9.829264,18.543138 v -3.498666 z m 3.242666,61.183975 0.938666,-6.655997 6.399997,1.365333 q 0.682667,0.08533 1.024,0.597333 0.341333,0.426666 0.341333,1.194666 v 3.498665 z M 81.33867,32.281799 q 6.485331,0 11.007995,2.815998 4.607998,2.730666 7.082664,7.765331 2.474661,5.034664 2.474661,11.690661 0,6.655998 -2.474661,11.690662 -2.474666,5.034665 -7.082664,7.850664 -4.522664,2.730665 -11.007995,2.730665 -6.314664,0 -11.007995,-2.730665 -4.607999,-2.815999 -7.167997,-7.850664 -2.474666,-5.034664 -2.474666,-11.690662 0,-6.655997 2.474666,-11.690661 2.559998,-5.034665 7.167997,-7.765331 4.693331,-2.815998 11.007995,-2.815998 z m 0,38.57065 q 6.399997,0 9.557329,-4.266665 3.157332,-4.266665 3.157332,-11.946661 0,-5.205332 -1.450666,-8.78933 -1.365333,-3.669332 -4.181331,-5.631998 -2.815999,-1.962666 -7.082664,-1.962666 -4.351998,0 -7.25333,2.048 -2.815999,1.962665 -4.181332,5.631997 -1.365333,3.669332 -1.365333,8.703997 0,7.423997 3.157332,11.861328 3.157332,4.351998 9.642663,4.351998 z m 40.44804,6.058664 q -3.072,0 -6.912,-0.682666 -3.75467,-0.682666 -6.48533,-1.706666 v -6.314664 l 3.75466,0.853333 q 1.10934,0.768 3.49867,1.621333 2.47466,0.767999 5.71733,0.767999 4.864,0 7.168,-1.962666 2.304,-2.047999 2.304,-4.949331 0,-2.559999 -1.536,-3.925332 -1.536,-1.365332 -4.096,-2.218665 -2.56,-0.853333 -5.54667,-1.792 -3.072,-1.023999 -5.63199,-2.389332 -2.56,-1.365333 -4.096,-3.498665 -1.536,-2.218666 -1.536,-5.546664 0,-3.839999 1.96266,-6.741331 2.048,-2.901332 5.46133,-4.522665 3.49867,-1.621332 7.85067,-1.621332 2.47466,0 5.46133,0.597333 3.072,0.597333 6.656,1.791999 v 5.119998 l -4.52267,-0.597333 q -1.792,-0.512 -3.66933,-0.853333 -1.792,-0.341333 -3.49867,-0.341333 -2.47466,0 -4.43733,0.767999 -1.87733,0.768 -2.98666,2.133333 -1.10934,1.365332 -1.10934,3.157332 0,2.389332 1.792,3.839998 1.87734,1.365333 4.52267,2.218666 2.64533,0.853333 5.03466,1.621333 2.816,0.853332 5.29067,2.218665 2.56,1.365333 4.18133,3.583999 1.62133,2.218665 1.62133,5.802664 0,3.839998 -2.048,6.911997 -1.96266,3.071999 -5.63199,4.863998 -3.584,1.791999 -8.53333,1.791999 z m 8.53333,-38.911983 5.46133,1.109332 v 6.655998 h -2.816 q -0.85334,0 -1.28,-0.341334 -0.42667,-0.426666 -0.512,-1.023999 z m -16.46933,33.023986 -5.46133,-1.109333 v -6.655997 h 2.816 q 0.93866,0 1.28,0.426666 0.42666,0.341333 0.512,0.938666 z m 45.90936,5.887997 q -5.11999,0 -7.93599,-2.815998 -2.73067,-2.901333 -2.73067,-8.27733 V 39.364462 h -5.20533 q -0.68267,0 -1.19467,-0.426666 -0.42666,-0.426667 -0.42666,-1.28 v -2.986665 l 7.08266,-0.938666 1.792,-13.311995 q 0.17067,-1.450666 1.70667,-1.450666 h 3.84 v 14.847994 h 12.37332 v 5.546664 h -12.37332 v 25.941323 q 0,2.730665 1.27999,4.095998 1.36534,1.28 3.49867,1.28 0.93867,0 2.048,-0.512 1.10933,-0.512 2.048,-1.024 0.93866,-0.512 1.36533,-0.512 0.59733,0 1.024,0.682667 l 2.21867,3.669332 q -1.96267,1.791999 -4.77867,2.901332 -2.73066,1.023999 -5.632,1.023999 z"
       id="path1" />
    <path
       style="font-size:85.3333px;line-height:1;font-family:aleo;-inkscape-font-specification:aleo;fill:#3a2d32;stroke-linecap:round;stroke-linejoin:round;fill-opacity:1"
       d="m 15.973261,164.27285 v -61.18397 h 6.143998 q 1.109333,0 1.621332,0.256 0.597334,0.17067 1.194667,1.19467 l 21.162657,37.63198 q 0.682667,1.10933 1.024,2.21867 0.426667,1.024 0.853333,2.21866 0.426667,-1.10933 0.853333,-2.21866 0.512,-1.19467 1.109333,-2.304 l 20.735991,-37.54665 q 0.597333,-1.024 1.109333,-1.19467 0.597333,-0.256 1.706666,-0.256 h 6.143998 v 61.18397 h -7.253331 v -44.97064 q 0,-0.85334 0,-1.87734 0.08533,-1.024 0.170667,-2.13333 l -20.991991,38.22932 q -1.024,1.96267 -2.986666,1.96267 h -1.194666 q -1.877333,0 -2.986665,-1.96267 L 22.970592,115.20621 q 0.170666,1.10933 0.170666,2.21866 0.08533,1.024 0.08533,1.87734 v 44.97064 z m -6.143997,0 v -3.49866 q 0,-0.768 0.341333,-1.19467 0.341333,-0.512 1.024,-0.59733 l 6.399997,-1.36533 0.938666,6.65599 z m 11.690662,0 0.938666,-6.65599 6.399997,1.36533 q 0.682667,0.0853 1.024,0.59733 0.341333,0.42667 0.341333,1.19467 v 3.49866 z m -2.986666,-61.18397 -0.938666,6.656 -6.399997,-1.36534 q -0.682667,-0.17066 -1.024,-0.59733 -0.341333,-0.42666 -0.341333,-1.19466 v -3.49867 z m 46.847981,61.18397 v -3.49866 q 0,-0.768 0.341333,-1.19467 0.341333,-0.512 1.024,-0.59733 l 6.399997,-1.36533 0.938666,6.65599 z m 11.690662,0 0.938666,-6.65599 6.399997,1.36533 q 0.682667,0.0853 1.024,0.59733 0.341333,0.42667 0.341333,1.19467 v 3.49866 z m 8.703996,-61.18397 v 3.49867 q 0,0.768 -0.341333,1.19466 -0.341333,0.42667 -1.024,0.59733 l -6.399997,1.36534 -0.938666,-6.656 z m 26.367941,61.78131 q -6.22933,0 -10.92266,-2.816 -4.608002,-2.816 -7.168001,-8.02133 -2.559999,-5.20533 -2.559999,-12.288 0,-6.05866 2.474666,-10.92266 2.474665,-4.864 6.997334,-7.67999 4.60799,-2.816 10.75199,-2.816 5.376,0 9.38666,2.38933 4.01067,2.38933 6.22934,6.74133 2.30399,4.26666 2.30399,10.23999 0,1.792 -0.42666,2.38934 -0.34134,0.59733 -1.45067,0.59733 H 99.00251 q 0,0.256 0,0.59733 0,0.256 0,0.512 0.426667,7.168 4.01067,11.17867 3.58399,3.92533 9.72799,3.92533 2.64533,0 5.20533,-1.024 2.64533,-1.10934 4.608,-2.13334 2.048,-1.02399 2.90133,-1.02399 0.93867,0 1.45067,0.68266 l 2.13333,2.816 q -1.70666,2.21867 -4.608,3.75467 -2.816,1.45066 -6.05866,2.21866 -3.24267,0.68267 -6.22933,0.68267 z M 99.25851,137.90487 h 23.55199 q 0,-5.29067 -2.90133,-8.61867 -2.90133,-3.328 -8.02133,-3.328 -5.54667,0 -8.704,3.15734 -3.15733,3.15733 -3.92533,8.78933 z m 42.41059,27.05065 q -2.13333,0 -3.75466,-1.536 -1.536,-1.62133 -1.536,-3.84 0,-2.21866 1.536,-3.75466 1.62133,-1.62133 3.75466,-1.62133 2.21867,0 3.75467,1.62133 1.62133,1.536 1.62133,3.75466 0,2.21867 -1.62133,3.84 -1.536,1.536 -3.75467,1.536 z"
       id="path2" />
  </g>
</svg>
